<?xml version="1.0" standalone="no"?>
<!DOCTYPE svg PUBLIC "-//W3C//DTD SVG 20010904//EN"
 "http://www.w3.org/TR/2001/REC-SVG-20010904/DTD/svg10.dtd">
<svg version="1.0" xmlns="http://www.w3.org/2000/svg"
 width="460.000000pt" height="460.000000pt" viewBox="0 0 460.000000 460.000000"
 preserveAspectRatio="xMidYMid meet">
<metadata>
Created by potrace 1.14, written by Peter Selinger 2001-2017
</metadata>
<g transform="translate(0.000000,460.000000) scale(0.100000,-0.100000)"
fill="#000000" stroke="none">
<path d="M1393 4593 c8 -7 -22 -62 -43 -81 -11 -10 -11 -11 -1 -6 10 5 9 -2
-4 -24 -12 -19 -23 -28 -33 -24 -9 3 -13 1 -9 -5 4 -6 4 -13 0 -16 -5 -2 -2
-2 5 -1 16 4 15 -7 -3 -32 -8 -12 -16 -32 -19 -45 -2 -13 -14 -49 -26 -79 -12
-30 -24 -68 -27 -85 -9 -53 -34 -120 -51 -132 -11 -9 -12 -13 -3 -13 9 0 10
-4 4 -12 -17 -21 -61 -168 -77 -253 -22 -122 -24 -135 -15 -135 5 0 9 10 10
23 0 12 2 29 4 37 2 8 8 43 13 77 14 84 69 245 98 288 13 19 20 35 16 35 -4 0
0 5 8 10 8 5 23 7 33 4 9 -3 17 -1 17 5 0 6 -3 10 -7 10 -23 -4 -24 3 -3 21
13 12 29 19 35 16 7 -2 12 2 12 10 0 7 -4 11 -9 8 -18 -11 -6 7 22 34 16 16
27 31 25 34 -3 3 1 11 10 18 12 10 18 10 31 0 12 -11 15 -11 12 1 -2 8 -7 17
-13 21 -6 4 -2 8 8 8 13 0 17 -9 19 -42 1 -54 2 -56 16 -98 25 -78 24 -90 -23
-159 -24 -36 -56 -81 -72 -99 l-28 -34 -1 51 c0 30 3 46 8 39 5 -9 8 -10 8 -1
0 21 -16 22 -33 2 -14 -15 -14 -19 -3 -19 10 0 13 -8 10 -27 -7 -35 -13 -41
-24 -23 -10 16 -12 12 -24 -43 -4 -15 -11 -25 -16 -22 -5 3 -11 1 -15 -5 -3
-5 -1 -10 4 -10 6 0 11 -5 11 -11 0 -5 -4 -8 -8 -5 -5 3 -8 -5 -7 -17 1 -12
-11 -42 -27 -67 -16 -25 -37 -73 -48 -107 -10 -34 -26 -76 -35 -93 -8 -16 -15
-32 -15 -35 -1 -19 -70 -168 -82 -176 -6 -3 -9 -9 -8 -13 3 -11 -39 -104 -51
-112 -6 -3 -19 -26 -30 -50 -10 -25 -25 -47 -34 -50 -8 -4 -15 -12 -15 -20 0
-8 -6 -11 -17 -7 -11 4 -14 3 -9 -5 4 -6 -6 -23 -23 -38 -23 -20 -28 -32 -24
-52 8 -40 4 -76 -11 -101 -6 -10 -5 -12 3 -7 9 6 10 -13 6 -79 -6 -95 -14
-157 -22 -165 -2 -3 -11 4 -19 14 -8 11 -14 15 -14 9 0 -6 7 -16 15 -23 18
-15 20 -34 3 -24 -9 6 -9 3 0 -9 15 -18 7 -41 -11 -30 -8 5 -8 2 0 -9 7 -8 10
-18 6 -21 -3 -4 -1 -7 5 -7 6 0 20 18 31 40 11 22 15 37 10 34 -11 -6 -2 39
12 67 5 9 5 19 1 23 -3 4 0 11 8 16 15 9 37 79 47 147 3 24 8 41 12 39 3 -2 6
17 5 42 0 44 12 132 15 104 0 -7 6 -10 11 -7 8 5 7 11 -1 21 -10 12 -10 15 2
12 8 -2 13 3 12 10 -2 6 4 12 12 12 9 0 12 -6 9 -17 -5 -15 -4 -15 4 -3 6 8 9
17 6 22 -4 6 32 32 48 33 3 0 10 4 14 8 4 4 14 -3 22 -15 l13 -23 -4 23 c-3
12 -1 22 4 22 11 0 12 -37 1 -44 -5 -3 -8 -45 -8 -93 1 -65 4 -87 14 -85 6 1
12 -3 12 -9 0 -6 -8 -8 -19 -4 -11 3 -23 0 -27 -6 -4 -7 -3 -9 3 -6 23 15 43
-18 44 -73 2 -74 0 -94 -7 -87 -9 9 -13 77 -5 77 5 0 6 11 3 25 -2 14 -9 22
-14 19 -5 -3 -7 -12 -5 -18 3 -7 1 -19 -3 -26 -13 -21 -42 58 -38 103 2 25 -1
37 -9 37 -12 0 -17 -24 -14 -62 1 -9 -6 -34 -15 -55 -10 -21 -21 -47 -25 -58
-5 -13 -8 0 -8 35 1 84 0 92 -11 85 -8 -5 -8 -11 -1 -19 6 -7 8 -15 5 -18 -3
-3 -5 -30 -6 -59 0 -30 -5 -57 -11 -61 -7 -5 -8 -8 -2 -8 16 0 10 -121 -7
-132 -9 -7 -8 -8 6 -4 16 5 18 1 14 -32 -2 -28 2 -44 16 -58 13 -13 17 -14 14
-4 -3 8 2 24 11 35 15 18 15 19 -1 6 -20 -15 -19 -18 -24 97 -2 65 12 140 29
157 7 7 8 4 4 -8 -4 -11 -3 -16 4 -12 5 4 7 14 5 23 -6 17 9 50 18 42 2 -3 19
-32 36 -65 39 -73 53 -115 38 -115 -6 0 -9 -2 -6 -6 3 -3 1 -22 -4 -42 -5 -20
-10 -46 -12 -57 -5 -42 -37 -135 -46 -135 -6 0 -9 -3 -9 -7 4 -25 -4 -45 -26
-69 -14 -15 -25 -31 -25 -37 0 -5 -6 -4 -14 2 -12 10 -14 9 -10 -6 6 -21 44
-26 44 -6 0 7 4 13 8 13 5 0 21 25 37 55 16 33 34 55 44 55 14 0 14 2 1 10 -9
6 -10 10 -3 10 7 0 20 16 29 35 9 19 21 35 26 35 5 0 6 5 3 10 -3 6 -1 10 5
10 6 0 8 5 5 10 -10 16 -23 2 -45 -46 -21 -44 -37 -60 -25 -25 6 21 13 50 21
91 2 14 7 39 11 55 9 46 12 73 14 163 1 45 5 85 9 87 8 5 57 -88 70 -133 4
-15 11 -26 16 -25 5 1 8 -49 7 -110 -1 -62 2 -152 8 -201 5 -49 8 -90 6 -93
-4 -4 -32 144 -41 217 -2 19 -2 -8 0 -60 2 -52 8 -112 13 -132 6 -24 5 -40 -3
-49 -8 -9 -8 -10 0 -6 15 9 25 -28 12 -41 -6 -6 -17 -8 -24 -5 -8 3 -14 -1
-14 -11 0 -8 -12 -23 -27 -33 -16 -9 -38 -25 -49 -36 -13 -11 -24 -14 -28 -9
-3 6 4 19 17 29 25 19 92 131 84 139 -3 3 -17 -16 -31 -41 -16 -27 -32 -43
-38 -39 -6 4 -8 3 -5 -3 4 -5 -3 -20 -14 -32 -20 -22 -22 -22 -42 -4 l-22 18
20 -24 c13 -16 16 -25 8 -28 -6 -2 -21 -13 -34 -24 -19 -17 -30 -21 -49 -21
-3 0 -16 -12 -30 -25 l-25 -25 27 6 c20 4 30 1 38 -11 11 -17 11 -17 6 1 -5
14 -2 17 9 12 9 -3 14 -2 11 3 -3 5 18 19 47 31 28 12 59 28 68 36 9 8 19 11
24 7 4 -5 5 -2 1 5 -4 6 -3 12 3 12 6 0 27 16 46 36 20 20 38 34 39 32 1 -1 8
-17 15 -35 11 -26 11 -43 1 -85 -7 -29 -17 -57 -24 -63 -6 -5 -12 -17 -12 -25
-3 -29 -13 -71 -30 -128 -10 -31 -18 -59 -19 -62 -9 -41 -17 -60 -25 -55 -6 3
-7 -1 -4 -10 8 -19 -23 -105 -37 -105 -6 0 -8 -4 -5 -9 7 -11 -34 -111 -45
-111 -5 0 -9 -5 -9 -11 0 -5 -12 -36 -26 -67 -14 -31 -30 -67 -35 -79 -7 -20
-11 -21 -33 -11 -14 6 -23 15 -20 19 3 5 -1 6 -9 3 -8 -3 -30 3 -48 14 -19 10
-52 25 -74 32 -22 7 -62 23 -88 36 -37 17 -56 20 -80 14 -18 -5 -57 -11 -89
-15 -31 -3 -73 -15 -94 -26 -21 -10 -46 -19 -56 -19 -34 0 -66 -23 -75 -54 -6
-19 -15 -30 -24 -28 -10 3 -11 1 -3 -8 12 -12 1 -74 -17 -96 -5 -6 -6 -14 -2
-17 3 -4 -2 -7 -13 -8 -10 0 -13 -3 -6 -6 19 -7 15 -77 -6 -101 -13 -15 -22
-18 -29 -11 -8 8 -13 7 -18 -2 -5 -8 -4 -10 3 -5 7 4 12 5 12 2 0 -3 -19 -14
-42 -24 -24 -11 -69 -39 -100 -62 l-58 -43 0 -59 c0 -32 3 -58 6 -58 3 0 25
14 48 31 24 17 50 31 59 33 8 1 21 7 28 12 8 6 29 16 46 22 29 10 33 9 33 -6
0 -11 -25 -29 -71 -52 -39 -19 -74 -40 -77 -46 -4 -5 -22 -16 -40 -23 l-32
-13 0 -394 0 -394 2062 0 2063 0 -32 23 c-18 12 -33 27 -33 34 0 7 -9 17 -20
23 -11 6 -17 16 -14 22 4 7 3 8 -5 4 -6 -4 -18 -1 -26 8 -20 20 -121 79 -172
101 -23 10 -40 22 -37 26 2 4 -4 6 -13 5 -16 -3 -68 16 -170 60 -17 8 -38 14
-46 14 -9 0 -18 3 -20 8 -3 4 -37 18 -76 32 -39 13 -71 28 -71 33 0 4 -5 5
-11 2 -14 -9 -139 53 -146 72 -4 9 -2 33 4 54 5 21 7 36 3 34 -5 -3 -8 7 -7
23 0 15 -1 34 -2 42 -1 19 -58 41 -115 46 -44 3 -137 19 -143 24 -4 3 -13 5
-66 14 -27 4 -58 9 -69 11 -11 3 -46 7 -77 11 -31 3 -60 9 -65 11 -4 3 -20 7
-35 8 -116 12 -144 16 -150 19 -3 2 -40 7 -81 10 -171 14 -270 37 -270 62 0 8
-4 14 -10 14 -5 0 -7 -7 -4 -15 7 -18 -4 -18 -66 -4 -140 31 -402 132 -444
170 -6 5 -18 9 -27 9 -10 0 -19 4 -21 9 -1 5 -64 39 -138 76 -74 37 -138 72
-141 77 -3 5 -10 10 -15 9 -22 -1 -54 12 -54 22 0 6 -2 8 -6 5 -3 -3 -44 15
-92 41 -48 26 -101 53 -117 59 -19 8 -31 20 -31 32 0 10 3 17 7 14 7 -4 37 62
63 139 9 26 22 58 30 70 17 26 156 438 156 461 0 9 5 16 10 16 6 0 10 9 10 20
0 11 7 20 16 20 9 0 12 -5 8 -12 -4 -7 -3 -8 5 -4 9 6 8 14 -3 32 -19 28 -20
34 -5 34 5 0 7 -5 3 -12 -4 -6 -3 -8 4 -4 5 3 13 0 15 -6 4 -8 6 -9 6 -2 1 6
-5 17 -12 23 -8 6 -12 23 -9 42 4 26 9 16 37 -68 46 -142 77 -204 124 -246
l42 -38 -6 -318 c-5 -223 -3 -321 4 -326 8 -4 11 22 11 82 2 227 9 658 13 743
6 111 -8 58 -18 -72 -7 -81 -15 -90 -47 -52 -51 62 -102 318 -68 339 5 3 10
13 10 22 0 9 16 35 35 59 19 23 35 45 35 49 0 3 10 16 21 28 l22 22 -6 -22
c-4 -17 -1 -23 11 -24 14 0 15 -1 2 -7 -21 -10 -23 -32 -3 -32 12 0 14 -3 6
-8 -8 -5 -9 -13 -3 -22 14 -21 12 -36 -2 -22 -7 7 -15 12 -20 12 -4 0 7 -15
25 -33 18 -18 33 -39 35 -47 2 -7 11 -20 20 -28 9 -7 12 -11 6 -8 -12 6 -12
-23 0 -42 4 -6 4 -17 0 -24 -4 -7 -3 -8 4 -4 7 4 12 2 12 -4 0 -6 5 -8 12 -4
8 5 9 2 5 -10 -4 -11 -3 -15 4 -10 8 4 9 -1 4 -16 -5 -14 -3 -20 3 -16 11 7
11 -12 -1 -32 -8 -11 -2 -16 16 -13 4 0 7 -4 7 -10 0 -5 4 -8 8 -5 5 3 9 -1 9
-9 0 -8 -4 -12 -9 -9 -4 3 -8 1 -8 -5 0 -5 -8 -11 -17 -13 -15 -3 -14 -5 5
-10 15 -4 20 -2 16 5 -3 7 1 4 9 -5 8 -10 17 -16 21 -13 3 3 2 -1 -4 -7 -14
-17 -12 -31 3 -25 9 3 12 -4 9 -28 -2 -18 1 -36 7 -39 7 -5 9 0 5 11 -5 17 -5
17 6 0 6 -9 8 -22 5 -27 -3 -6 0 -10 7 -10 9 0 9 -3 -2 -10 -12 -8 -10 -10 10
-11 l25 -1 -25 -8 c-22 -7 -22 -8 -4 -9 29 -1 34 -9 24 -36 -7 -17 -5 -25 6
-29 22 -8 26 -7 19 3 -3 5 -1 12 4 15 5 4 7 -7 5 -24 -3 -18 -1 -30 6 -30 6 0
9 4 6 8 -3 5 1 9 9 9 8 0 15 -4 15 -9 0 -4 -5 -8 -11 -8 -5 0 -7 -5 -3 -12 4
-6 3 -8 -3 -5 -6 4 -14 0 -17 -9 -9 -24 0 -29 21 -13 16 12 17 12 6 -1 -6 -9
-10 -25 -8 -35 2 -11 4 -25 4 -32 1 -8 8 -10 19 -6 15 6 15 5 3 -10 -9 -12
-10 -17 -2 -17 7 0 10 -4 7 -9 -4 -5 3 -7 15 -4 11 3 23 12 26 20 8 20 53 -36
53 -66 0 -20 -3 -22 -27 -17 l-28 7 25 -22 c21 -18 22 -20 5 -15 -20 6 -20 6
-1 -9 12 -9 29 -12 44 -8 16 4 23 2 18 -5 -3 -5 -17 -9 -31 -8 -13 2 -22 -1
-19 -5 3 -5 13 -9 22 -9 15 0 15 -2 2 -11 -12 -9 -10 -10 8 -6 19 4 22 2 17
-13 -3 -11 1 -32 9 -47 8 -15 15 -22 16 -15 0 10 5 10 22 1 22 -12 22 -12 3
-20 -18 -7 -18 -8 -2 -8 12 -1 16 -5 11 -13 -6 -10 -4 -10 8 0 20 16 17 37 -8
58 -19 15 -18 15 3 11 20 -4 22 -2 17 19 -4 15 -2 24 6 24 7 0 9 8 5 23 -5 17
-4 19 4 7 8 -11 11 -11 11 -2 0 7 -7 15 -16 19 -13 5 -13 7 -2 14 17 11 31 11
24 1 -3 -5 2 -21 10 -36 18 -36 18 -45 -1 -20 -13 17 -14 16 -10 -21 4 -35 3
-37 -4 -10 -10 35 -13 30 -15 -25 0 -22 2 -40 7 -40 4 0 7 5 7 11 0 5 5 7 10
4 6 -3 10 -11 10 -16 0 -6 -5 -7 -12 -3 -8 5 -9 2 -5 -10 4 -10 7 -21 7 -24 1
-4 7 4 14 18 10 17 11 30 5 42 -8 14 -6 16 7 11 13 -5 15 -3 9 7 -5 9 -4 11 4
6 6 -4 9 -11 6 -16 -3 -5 -1 -11 4 -15 6 -3 7 -13 4 -22 -4 -11 -3 -14 6 -9 9
6 10 1 5 -18 -4 -16 -2 -26 5 -26 6 0 11 -8 12 -17 0 -16 2 -15 10 2 8 18 9
17 6 -5 -2 -14 5 -33 16 -43 16 -17 18 -17 15 -1 -2 9 3 19 10 21 16 6 -7 -53
-38 -97 -12 -16 -25 -53 -30 -82 -4 -29 -11 -61 -15 -70 -5 -13 -2 -18 11 -18
9 0 14 3 11 7 -4 3 -2 12 4 20 6 7 9 13 5 13 -3 0 3 17 14 37 11 21 20 45 20
53 0 9 9 25 19 37 29 31 68 113 76 161 4 23 11 40 16 37 5 -4 6 0 3 8 -3 8 1
21 8 28 7 8 14 21 16 29 4 18 60 130 74 148 16 19 40 14 72 -13 17 -14 40 -28
53 -31 13 -4 23 -14 23 -23 0 -13 2 -13 9 -2 6 10 10 10 16 1 11 -18 87 -9
112 13 12 11 27 16 34 12 7 -5 10 -4 6 1 -7 13 91 66 106 57 5 -3 7 -1 4 4 -4
6 4 18 18 27 14 9 25 14 25 11 0 -4 7 1 16 10 9 9 23 14 30 11 8 -3 13 0 11 7
-1 7 4 11 11 9 6 -1 12 2 12 7 0 14 92 63 106 57 7 -3 11 0 9 7 -3 7 8 19 24
27 16 8 46 24 67 35 22 11 48 30 59 42 11 13 26 23 33 23 6 0 24 19 39 43 38
58 132 227 139 249 3 10 9 18 14 18 5 0 12 12 17 27 8 24 11 16 18 -52 4 -44
8 -92 9 -106 1 -14 6 -26 11 -26 6 0 11 41 12 96 2 52 7 99 11 103 15 15 45
-111 48 -195 2 -56 -1 -75 -9 -70 -8 4 -7 1 1 -9 10 -13 10 -19 -2 -31 -14
-13 -14 -16 -1 -21 9 -3 15 0 15 8 0 7 9 25 20 39 23 29 32 82 30 180 0 37 3
67 7 67 5 0 23 -24 41 -54 18 -30 51 -73 73 -96 72 -73 172 -122 107 -52 -34
36 -61 90 -54 108 3 8 2 13 -3 10 -11 -7 -22 20 -15 38 3 8 1 17 -5 21 -13 8
-15 241 -2 249 12 8 74 -121 67 -139 -3 -9 -2 -14 3 -11 18 11 29 -60 13 -80
-4 -5 -5 -8 -3 -6 3 1 10 -7 16 -18 10 -18 11 -16 12 17 4 106 3 162 -2 206
-8 59 7 61 25 5 8 -24 20 -51 28 -60 8 -9 11 -23 6 -30 -4 -7 -4 -10 1 -6 9 8
42 -32 37 -45 -1 -5 1 -6 6 -3 5 3 18 -12 30 -33 12 -21 29 -44 37 -51 8 -7
13 -16 10 -20 -7 -11 63 -46 72 -36 4 5 3 11 -4 13 -44 16 -94 96 -118 188
-24 97 -28 275 -6 293 9 7 10 10 2 6 -11 -6 -12 5 -7 58 9 84 32 168 40 148
16 -42 37 -145 46 -228 12 -110 16 -265 7 -278 -3 -6 -2 -16 3 -24 12 -19 18
12 24 115 9 145 17 250 23 265 4 13 6 204 2 226 -4 21 2 26 16 14 8 -7 12 -16
9 -21 -3 -5 -1 -9 5 -9 12 0 46 -60 34 -60 -5 0 -3 -4 2 -8 14 -10 48 -72 39
-72 -3 0 -2 -6 3 -12 17 -21 24 -120 10 -137 -8 -10 -9 -13 0 -8 17 10 7 -126
-11 -161 -8 -15 -29 -42 -46 -60 -36 -35 -33 -39 9 -18 35 19 54 47 71 108 8
30 17 45 24 41 8 -4 8 -3 0 6 -6 7 -8 33 -4 69 10 85 3 214 -20 347 -6 33 -13
75 -16 94 -3 19 -10 45 -15 58 -6 16 -5 23 4 23 8 0 7 4 -3 10 -8 5 -10 10 -5
10 6 0 5 4 -1 8 -12 7 -47 112 -40 119 5 5 30 -37 46 -77 8 -19 16 -37 19 -40
6 -5 13 -17 59 -99 49 -88 75 -126 109 -158 21 -19 32 -37 27 -44 -5 -8 -3 -9
6 -4 10 6 12 4 7 -9 -4 -9 -3 -15 2 -11 6 3 18 -8 27 -25 10 -16 24 -30 31
-30 7 0 13 -10 14 -22 0 -22 1 -22 8 -3 8 19 9 18 13 -5 5 -21 5 -20 7 8 0 18
-3 31 -8 28 -13 -8 -73 63 -65 77 4 7 4 9 -1 5 -7 -6 -45 41 -50 62 -1 3 -7
18 -13 33 -15 36 -15 50 0 41 7 -4 8 -3 4 5 -4 6 -11 9 -16 6 -10 -6 -28 32
-66 143 -24 68 -31 97 -38 147 -2 11 -6 27 -9 35 -20 48 -56 194 -62 250 -5
36 -9 72 -10 80 -1 8 -5 44 -9 80 -14 117 -18 136 -51 241 -15 46 -27 98 -28
115 -1 18 -5 30 -9 27 -5 -2 -9 3 -9 11 -1 9 -3 21 -4 26 -1 6 -3 18 -4 28 -1
15 -3 15 -12 2 -8 -12 -9 -9 -5 13 4 17 2 27 -5 27 -7 0 -10 3 -6 6 3 3 -3 26
-14 51 -24 57 -24 62 3 27 12 -16 27 -32 32 -36 6 -4 7 -10 3 -14 -4 -4 0 -12
8 -18 8 -6 34 -46 58 -88 24 -43 48 -74 52 -70 5 4 5 1 1 -6 -4 -7 -2 -19 4
-27 7 -8 10 -22 6 -30 -3 -9 -2 -14 3 -10 5 3 12 -8 16 -25 4 -16 10 -30 14
-30 4 0 8 -6 9 -12 1 -16 7 -38 15 -58 18 -45 37 -113 33 -117 -2 -3 2 -20 10
-38 8 -19 14 -63 14 -97 1 -49 3 -59 11 -45 12 20 15 74 6 97 -3 8 -8 40 -12
70 -10 100 -21 144 -34 136 -3 -2 -6 7 -5 22 1 31 -25 116 -60 195 -15 32 -23
63 -20 69 4 6 3 8 -3 5 -6 -4 -22 16 -37 43 -15 27 -31 52 -36 55 -5 3 -17 21
-25 39 -9 18 -24 42 -33 52 -33 35 -62 82 -107 169 -24 48 -64 118 -87 156
l-43 69 -1259 0 c-692 0 -1256 -3 -1253 -7z m141 -221 c-4 -18 -9 -30 -13 -28
-3 2 -6 -17 -6 -42 0 -25 -6 -47 -12 -49 -6 -2 -9 -14 -6 -26 2 -12 -3 -7 -11
12 -20 41 -29 121 -14 121 5 0 7 -7 4 -15 -5 -13 -1 -12 18 2 13 10 20 19 16
21 -5 2 -1 11 8 21 22 23 23 21 16 -17z m252 -160 c-4 -3 -12 0 -19 7 -9 11
-9 14 1 18 6 3 13 12 13 21 1 10 4 4 6 -11 3 -16 2 -31 -1 -35z m-8 -46 c2
-22 -3 -47 -12 -61 -14 -21 -14 -24 -1 -19 12 5 15 -2 14 -32 -2 -31 -3 -33
-6 -11 -3 20 -10 27 -26 26 -17 -1 -18 -2 -4 -6 9 -2 17 -9 17 -14 0 -6 -4 -7
-10 -4 -5 3 -10 -1 -10 -9 0 -9 -4 -16 -10 -16 -5 0 -8 6 -6 13 1 6 1 9 -1 4
-3 -4 -9 -4 -15 -1 -5 4 -5 -4 2 -16 11 -20 10 -22 -4 -17 -9 4 -16 3 -16 -2
0 -8 -41 -23 -47 -17 -2 2 3 17 10 35 7 17 17 28 21 24 4 -4 4 0 1 8 -3 8 1
29 10 45 8 16 15 35 15 42 0 7 7 15 15 18 8 4 12 10 9 15 -9 15 13 10 26 -6 7
-9 15 -13 18 -10 3 3 -3 11 -13 19 -10 7 -15 18 -11 25 14 22 31 5 34 -33z
m131 -79 c1 -9 5 -25 10 -35 34 -67 35 -71 18 -90 -10 -10 -15 -21 -12 -24 3
-2 -6 -28 -20 -57 -14 -29 -23 -55 -21 -59 3 -5 1 -14 -3 -21 -4 -7 -8 8 -7
33 0 26 5 46 10 46 6 0 5 4 -3 9 -18 12 -24 130 -8 150 7 8 8 12 2 9 -6 -4
-10 6 -10 23 0 17 5 27 11 25 6 -2 11 2 11 9 0 7 -6 11 -12 9 -11 -5 -14 27
-6 61 3 13 39 -65 40 -88z m271 -87 c0 -5 -5 -10 -11 -10 -5 0 -7 5 -4 10 3 6
8 10 11 10 2 0 4 -4 4 -10z m7 -40 c-3 -11 -2 -20 3 -20 12 0 18 -46 8 -64 -7
-12 -5 -16 7 -16 9 0 15 -9 15 -21 0 -16 -5 -20 -20 -16 -13 3 -20 0 -20 -10
0 -8 5 -11 10 -8 6 3 10 1 10 -4 0 -6 -1 -11 -3 -11 -1 0 -16 -4 -34 -9 -32
-9 -37 -2 -19 28 6 9 5 12 -1 8 -6 -4 -13 0 -17 8 -3 10 1 15 12 15 15 1 15 2
1 10 -13 7 -15 19 -9 57 4 26 13 49 19 51 6 2 9 8 5 13 -3 5 5 9 17 9 16 0 20
-5 16 -20z m-742 -67 c-4 -10 -7 -28 -6 -41 0 -15 -3 -21 -11 -16 -8 5 -9 2
-5 -10 5 -12 3 -15 -6 -10 -9 6 -9 4 1 -8 10 -12 10 -17 -1 -26 -7 -6 -14 -36
-15 -70 -1 -34 -11 -77 -22 -101 -21 -42 -33 -50 -46 -29 -4 7 -3 8 4 4 7 -4
12 -1 12 9 0 10 -5 13 -12 9 -8 -5 -9 -2 -5 9 8 20 -3 22 -23 5 -9 -8 -8 -5 2
7 10 13 13 27 8 40 -14 32 -11 40 5 19 14 -18 14 -17 5 9 -13 35 -13 30 10 57
11 13 20 29 20 36 0 7 11 21 25 32 14 11 25 25 25 32 0 11 31 59 39 60 2 0 0
-8 -4 -17z m-142 -32 c-3 -11 -14 -28 -26 -38 -20 -17 -20 -17 -14 0 4 10 7
21 7 23 0 3 5 2 12 -2 7 -5 9 -2 5 9 -3 9 -1 18 6 21 7 2 13 5 14 5 0 1 -1 -8
-4 -18z m1304 -43 c-3 -8 -6 -5 -6 6 -1 11 2 17 5 13 3 -3 4 -12 1 -19z m-68
-128 c11 -22 10 -23 -2 -8 -8 10 -17 15 -21 11 -4 -4 -4 1 0 10 7 20 7 20 23
-13z m-4 -40 c-3 -5 -15 -15 -26 -20 -15 -9 -19 -7 -19 6 0 10 5 14 15 11 8
-4 17 -2 20 3 4 6 8 10 11 10 3 0 2 -4 -1 -10z m92 -5 c0 -8 -4 -12 -9 -9 -5
3 -6 10 -3 15 9 13 12 11 12 -6z m363 1 c0 -3 -4 -8 -10 -11 -5 -3 -10 -1 -10
4 0 6 5 11 10 11 6 0 10 -2 10 -4z m-392 -41 c-3 -3 -9 2 -12 12 -6 14 -5 15
5 6 7 -7 10 -15 7 -18z m-27 -13 c-6 -11 -6 -24 0 -35 6 -9 7 -22 3 -29 -4 -6
-3 -8 3 -5 6 4 10 -6 11 -22 0 -22 -3 -28 -16 -25 -66 12 -71 15 -69 34 1 11
5 20 9 20 4 0 8 7 8 15 0 8 5 15 10 15 6 0 10 9 10 21 0 11 5 17 10 14 6 -3
10 -1 10 4 0 6 5 11 10 11 7 0 7 -6 1 -18z m473 -8 c3 -8 2 -12 -4 -9 -6 3
-10 10 -10 16 0 14 7 11 14 -7z m-445 -11 c-7 -10 -14 -19 -15 -21 -1 -2 -4 4
-8 13 -3 9 -2 13 4 10 6 -3 10 -1 10 4 0 6 5 11 11 11 8 0 7 -6 -2 -17z m41 3
c0 -2 -7 -7 -16 -10 -8 -3 -12 -2 -9 4 6 10 25 14 25 6z m-180 -36 c6 -11 8
-20 6 -20 -3 0 -10 9 -16 20 -6 11 -8 20 -6 20 3 0 10 -9 16 -20z m67 -86 c-3
-3 -12 -4 -19 -1 -8 3 -5 6 6 6 11 1 17 -2 13 -5z m28 -27 c47 -11 50 -14 57
-52 5 -22 11 -47 15 -55 7 -18 13 -39 17 -60 1 -8 12 -35 24 -59 12 -25 20
-46 18 -48 -2 -2 -23 9 -47 25 -67 44 -205 112 -228 112 -5 0 -12 4 -15 9 -3
4 11 5 32 1 20 -4 55 -10 77 -14 l40 -6 -30 15 c-16 8 -39 14 -51 15 -28 0
-35 9 -24 31 7 12 7 20 -1 24 -6 5 -4 12 8 21 10 7 14 14 8 14 -5 0 -3 5 5 10
13 9 13 11 0 20 -21 13 29 12 95 -3z m-122 -22 c-3 -9 -8 -14 -10 -11 -3 3 -2
9 2 15 9 16 15 13 8 -4z m-1036 -75 c-3 -35 -1 -60 5 -62 6 -2 3 -9 -5 -16
-12 -10 -15 -9 -19 10 -4 25 11 128 19 128 2 0 2 -27 0 -60z m-95 34 c23 -5
27 -10 22 -28 -4 -16 -1 -23 10 -23 9 0 16 4 16 9 0 4 -5 8 -11 8 -5 0 -7 5
-4 11 4 6 10 8 13 4 10 -9 9 -95 0 -89 -4 3 -8 -2 -8 -10 0 -9 -7 -16 -16 -16
-12 0 -14 3 -6 13 8 10 2 13 -29 13 -34 1 -39 -2 -33 -18 5 -17 3 -18 -15 -8
-12 6 -29 10 -39 8 -12 -2 -18 5 -20 25 -2 15 1 27 7 27 6 0 11 6 11 13 0 6 9
27 20 45 14 23 26 32 38 28 9 -3 29 -8 44 -12z m1108 -31 c-11 -17 -11 -17 -6
0 3 10 6 24 7 30 0 9 2 9 5 0 3 -7 0 -20 -6 -30z m527 -39 c-3 -3 -12 -4 -19
-1 -8 3 -5 6 6 6 11 1 17 -2 13 -5z m-452 -44 c3 -6 -1 -7 -9 -4 -18 7 -21 14
-7 14 6 0 13 -4 16 -10z m-1202 -15 c-3 -9 -8 -14 -10 -11 -3 3 -2 9 2 15 9
16 15 13 8 -4z m1063 -13 c-2 -4 11 -6 30 -4 35 4 68 -13 58 -29 -3 -5 -2 -9
3 -8 21 4 32 -4 57 -40 21 -31 27 -48 24 -82 l-3 -44 -54 -3 c-29 -2 -61 0
-70 4 -9 3 -35 6 -58 5 -40 -2 -43 -1 -43 24 0 19 4 26 13 22 8 -3 20 -1 28 4
11 6 11 11 2 20 -9 9 -16 9 -28 -1 -13 -11 -15 -7 -15 34 0 30 4 46 13 46 7 0
8 3 2 8 -24 18 -6 52 28 52 10 0 16 -4 13 -8z m-1155 -34 c8 -7 22 -22 29 -32
13 -17 13 -18 1 -11 -11 6 -13 3 -9 -12 5 -18 3 -19 -36 -9 -23 6 -42 11 -44
11 -1 1 3 16 9 33 12 34 26 40 50 20z m1401 -30 c71 -36 131 -93 159 -153 11
-22 17 -32 15 -23 -3 9 2 22 11 30 14 11 15 10 9 -10 -5 -14 -3 -22 4 -22 6 0
9 -4 6 -9 -4 -5 -2 -11 2 -13 5 -1 21 -39 37 -83 15 -44 34 -89 41 -100 8 -11
14 -25 14 -32 0 -14 -82 -103 -96 -103 -5 0 -15 -9 -22 -20 -7 -11 -10 -20 -8
-20 12 0 76 43 76 51 0 5 12 15 28 22 15 6 32 18 37 25 8 9 25 -13 69 -88 48
-83 56 -103 46 -116 -11 -12 -10 -13 4 -8 10 4 24 -3 37 -17 l21 -24 -17 29
-18 30 47 42 c25 24 46 49 46 56 0 10 3 9 9 -2 6 -8 8 -17 5 -21 -2 -4 0 -10
6 -14 6 -4 8 -10 6 -14 -3 -4 1 -8 8 -8 8 0 11 8 8 19 -2 10 -8 15 -13 12 -5
-3 -6 2 -3 10 3 9 7 16 9 16 1 0 10 -21 20 -47 18 -49 98 -177 117 -189 6 -4
5 3 -2 16 -6 12 -10 31 -7 41 3 10 1 17 -4 13 -8 -5 -11 3 -8 22 0 4 -5 10
-11 14 -7 4 -13 19 -13 33 -1 14 -5 23 -9 20 -8 -4 -13 41 -10 80 1 9 -3 17
-8 17 -6 0 -10 7 -10 15 0 8 5 15 11 15 5 0 7 -5 3 -12 -4 -7 -3 -8 4 -4 6 4
9 13 5 21 -3 8 -2 15 2 15 16 0 105 -72 99 -81 -3 -5 2 -9 10 -9 8 0 20 -10
27 -21 9 -17 8 -20 -3 -14 -7 3 -4 -1 6 -9 11 -9 17 -16 13 -16 -4 0 -3 -8 2
-19 10 -17 23 -72 24 -98 0 -7 4 -13 9 -13 5 0 6 9 3 20 -4 13 -2 20 6 20 7 0
10 -3 7 -6 -4 -3 0 -21 8 -39 19 -45 18 -52 -4 -25 -17 21 -18 21 -18 1 0 -11
2 -18 5 -16 8 8 29 -29 24 -42 -3 -7 -8 -11 -12 -9 -3 2 -15 -8 -26 -23 -19
-26 -19 -26 0 -11 20 14 20 14 1 -8 -15 -17 -22 -19 -33 -11 -11 10 -12 8 -7
-6 4 -10 3 -16 -2 -13 -5 3 -25 -5 -44 -18 -22 -15 -28 -24 -18 -24 9 0 19 4
22 9 3 5 20 12 38 15 18 3 45 13 60 20 25 13 30 13 50 -4 13 -11 18 -19 11
-20 -6 0 -13 6 -16 13 -2 6 -8 9 -12 4 -5 -4 -4 -12 3 -19 10 -10 -3 -44 -38
-98 -6 -8 -15 -26 -20 -40 -26 -64 -99 -182 -140 -224 -25 -26 -70 -64 -100
-84 -30 -20 -59 -40 -65 -44 -27 -20 -177 -118 -182 -118 -3 0 -27 -16 -53
-35 -26 -19 -52 -35 -58 -35 -5 0 -15 -7 -23 -16 -7 -8 -29 -24 -48 -35 -20
-11 -51 -31 -70 -44 -37 -27 -108 -34 -129 -13 -7 7 -12 8 -12 4 0 -5 -20 8
-44 28 -24 20 -49 36 -55 36 -6 0 -11 4 -11 8 0 4 -13 15 -28 24 -45 27 -217
171 -347 292 -136 127 -166 157 -203 206 -15 19 -33 39 -39 43 -7 4 -13 17
-13 27 0 11 -3 19 -7 19 -19 -3 -33 2 -33 12 0 16 -93 200 -124 246 -14 21
-26 42 -26 47 0 5 -10 17 -22 27 -11 11 -18 19 -14 19 3 0 -1 11 -10 25 -17
27 -10 50 7 25 8 -11 9 -8 3 10 -9 35 -12 36 -29 14 -14 -18 -14 -18 -15 8 0
20 4 26 15 22 8 -4 15 -1 15 5 0 7 -9 15 -19 19 -16 6 -17 9 -5 20 12 11 14
10 14 -3 0 -17 6 -18 35 -5 18 8 18 9 -5 10 -25 1 -25 1 -2 10 27 12 29 20 2
13 -11 -3 -20 0 -20 6 0 6 5 11 12 11 9 0 9 3 0 12 -19 19 -14 30 11 23 20 -5
20 -5 -3 9 -14 9 -20 15 -15 16 11 0 14 50 3 50 -4 0 -3 12 3 27 5 14 8 32 5
40 -3 8 2 13 14 13 11 0 20 -6 20 -14 0 -8 3 -22 7 -32 5 -13 3 -15 -7 -9 -7
4 -3 -5 8 -21 24 -33 34 -77 34 -151 0 -29 4 -53 9 -53 5 0 9 -5 9 -11 0 -5
-4 -7 -10 -4 -5 3 -10 1 -10 -4 0 -6 3 -11 8 -11 4 0 7 -17 7 -37 1 -67 29
-196 45 -201 5 -2 7 -8 4 -14 -3 -5 2 -16 12 -24 11 -9 13 -13 7 -9 -7 3 -13
1 -13 -5 0 -6 6 -13 14 -16 9 -3 12 -12 9 -21 -4 -11 -2 -14 5 -9 7 4 12 1 12
-7 0 -8 7 -21 16 -28 15 -12 16 -11 11 6 -15 49 -36 250 -31 286 l7 39 48 -72
c26 -40 61 -86 76 -103 16 -16 38 -43 51 -59 25 -33 29 -27 7 12 -30 55 -68
178 -69 230 -1 12 -4 22 -8 22 -5 0 -8 13 -8 28 0 26 3 28 30 24 17 -2 30 -9
30 -15 0 -6 2 -8 5 -5 11 10 -7 37 -21 31 -7 -3 -20 2 -28 10 -17 17 -11 28
10 20 8 -3 14 0 14 7 0 6 4 9 9 5 5 -3 13 0 17 6 4 7 3 9 -3 6 -6 -4 -19 1
-29 9 -10 9 -14 13 -8 10 7 -3 14 1 18 9 3 8 12 15 21 15 8 0 15 4 15 10 0 5
-6 7 -14 4 -8 -3 -16 3 -19 16 -4 15 0 23 17 29 12 5 22 18 23 31 2 19 0 20
-14 8 -14 -11 -13 -8 1 15 14 21 15 27 5 27 -9 1 -6 7 8 19 12 10 20 21 17 24
-3 3 -1 14 4 24 5 10 6 27 2 38 -5 13 -2 24 9 32 14 11 14 12 1 13 -13 0 -13
2 -1 9 12 8 12 12 2 25 -8 9 -9 16 -3 16 12 0 24 -29 16 -41 -3 -5 -1 -9 4 -9
8 0 32 -122 31 -160 -1 -22 60 -199 82 -242 11 -21 17 -38 12 -38 -4 0 -3 -4
2 -8 18 -13 51 -56 37 -48 -11 7 -12 5 -3 -10 13 -23 56 -75 45 -55 -4 7 -7
21 -8 30 -1 9 -12 48 -25 86 -21 61 -24 89 -25 220 0 161 8 253 24 269 7 7 10
-6 11 -40 2 -49 4 -104 7 -156 1 -16 6 -28 10 -28 5 0 8 23 7 50 -2 28 1 50 6
50 5 0 9 -7 9 -15 0 -19 55 -179 70 -202 10 -15 10 -14 6 8 -3 15 -9 90 -12
168 -6 127 -5 141 9 141 10 0 17 7 17 16 0 9 5 12 12 8 6 -4 30 -6 54 -6 32 2
46 -3 53 -15 6 -10 11 -12 11 -5 0 6 9 12 21 12 11 0 18 -4 15 -8 -3 -5 9 -6
26 -4 19 3 28 1 25 -5 -4 -6 3 -8 17 -6 13 3 45 -5 71 -16 27 -12 51 -19 54
-15 10 10 -29 32 -80 44 l-49 12 2 67 c1 45 -4 76 -16 99 -9 17 -14 32 -12 32
3 0 34 -14 68 -32z m128 -13 c-7 -9 -15 -13 -19 -10 -3 3 1 10 9 15 21 14 24
12 10 -5z m-1293 -52 c-3 -10 -5 -2 -5 17 0 19 2 27 5 18 2 -10 2 -26 0 -35z
m1328 25 c5 4 5 1 1 -6 -6 -9 -11 -10 -20 -3 -7 6 -17 7 -21 3 -5 -4 -5 -1 -1
6 6 9 11 10 20 3 7 -6 17 -7 21 -3z m-757 -43 c-2 -28 -5 -32 -16 -22 -8 6
-10 13 -4 15 5 1 8 12 5 22 -3 11 0 20 6 20 7 0 11 -14 9 -35z m-797 -8 c4 -5
1 -24 -6 -41 -8 -19 -10 -38 -5 -46 4 -7 6 -19 3 -26 -2 -6 1 -15 6 -19 6 -3
9 -11 6 -16 -4 -5 -1 -9 4 -9 6 0 11 -8 11 -18 0 -10 15 -46 33 -80 25 -49 44
-71 91 -102 32 -22 76 -44 96 -50 35 -9 40 -15 63 -78 l25 -67 -27 -8 c-70
-20 -187 74 -295 238 -22 33 -45 63 -51 67 -5 4 -6 8 -1 8 5 0 2 8 -7 18 -9
10 -20 38 -24 63 -7 47 -7 155 1 176 6 14 67 6 77 -10z m1569 4 c14 -28 13
-36 -5 -21 -8 7 -13 16 -10 20 3 5 -1 11 -7 13 -10 4 -10 6 -1 6 7 1 17 -8 23
-18z m157 -13 c-3 -7 -5 -2 -5 12 0 14 2 19 5 13 2 -7 2 -19 0 -25z m-1620 0
c-3 -8 -6 -5 -6 6 -1 11 2 17 5 13 3 -3 4 -12 1 -19z m46 -8 c9 -11 17 -27 17
-35 0 -8 6 -15 13 -16 6 0 1 -5 -13 -11 -21 -9 -22 -12 -7 -15 9 -3 15 -9 12
-14 -4 -5 -1 -9 5 -9 6 0 9 -4 6 -9 -4 -5 -2 -19 2 -32 7 -19 10 -20 15 -6 4
10 2 17 -3 17 -6 0 -10 5 -10 11 0 5 5 7 12 3 6 -4 8 -3 4 4 -3 6 -1 14 5 18
9 5 10 -3 6 -29 -4 -27 -2 -37 7 -37 9 0 12 -9 9 -27 -4 -22 -2 -25 6 -13 8
12 10 11 8 -8 -1 -24 -8 -27 -23 -12 -7 7 -11 6 -11 -5 0 -8 3 -13 5 -10 3 3
11 0 18 -6 10 -8 10 -15 -1 -36 -8 -15 -12 -30 -9 -35 3 -4 0 -8 -5 -8 -6 0
-11 -8 -11 -17 0 -15 2 -16 10 -3 8 13 10 12 10 -2 0 -25 -17 -22 -59 9 -71
52 -119 114 -131 170 -5 18 -4 36 1 39 5 3 9 14 9 25 0 10 4 19 9 19 5 0 8 11
6 25 -1 14 2 28 6 31 5 3 9 -3 9 -13 1 -12 8 -5 23 19 12 21 24 38 27 38 3 0
13 -9 23 -20z m834 -22 c-3 -7 -5 -2 -5 12 0 14 2 19 5 13 2 -7 2 -19 0 -25z
m-1105 -20 c-8 -8 -9 -4 -5 13 4 13 8 18 11 10 2 -7 -1 -18 -6 -23z m318 28
c0 -3 -4 -8 -10 -11 -5 -3 -10 -1 -10 4 0 6 5 11 10 11 6 0 10 -2 10 -4z
m-505 -53 c-4 -27 -9 -61 -12 -78 -2 -16 -6 -39 -8 -50 -1 -11 -5 -27 -8 -35
-3 -8 -8 -27 -11 -42 -4 -16 -10 -28 -14 -28 -13 0 -1 184 12 192 8 6 7 8 -2
8 -8 0 -12 9 -10 23 2 12 9 21 16 20 6 -2 12 3 12 11 0 12 9 20 28 25 1 1 0
-20 -3 -46z m2492 -35 c-3 -8 -6 -5 -6 6 -1 11 2 17 5 13 3 -3 4 -12 1 -19z
m-2295 -15 c-6 -2 -9 -10 -6 -15 4 -7 2 -8 -4 -4 -18 11 -14 26 6 25 10 0 12
-3 4 -6z m863 -12 c3 -5 2 -12 -3 -15 -5 -3 -9 1 -9 9 0 17 3 19 12 6z m1372
-26 c-15 -16 -19 -13 -11 9 3 9 10 13 15 10 5 -3 3 -11 -4 -19z m-363 -29 c-5
-14 -9 -15 -15 -5 -5 8 -3 17 4 21 15 9 19 4 11 -16z m-1367 -18 c-3 -7 -5 -2
-5 12 0 14 2 19 5 13 2 -7 2 -19 0 -25z m353 18 c0 -2 -7 -7 -16 -10 -8 -3
-12 -2 -9 4 6 10 25 14 25 6z m1605 -56 c3 -5 1 -10 -4 -10 -6 0 -11 5 -11 10
0 6 2 10 4 10 3 0 8 -4 11 -10z m-535 -16 c0 -9 -5 -12 -12 -8 -9 5 -9 2 1 -9
11 -14 11 -17 0 -17 -8 -1 -3 -7 11 -14 14 -8 28 -12 32 -10 4 3 12 -14 19
-36 10 -32 16 -39 31 -34 10 3 18 0 18 -6 0 -6 -4 -9 -9 -5 -5 3 -13 0 -16 -6
-4 -6 2 -13 14 -16 21 -5 21 -7 5 -32 -27 -42 -67 -82 -75 -74 -10 11 -69 199
-69 220 0 14 36 63 47 63 2 0 3 -7 3 -16z m251 -15 c-12 -13 -21 -19 -21 -14
0 11 32 46 38 41 2 -3 -5 -15 -17 -27z m-173 -14 c-3 -3 -9 2 -12 12 -6 14 -5
15 5 6 7 -7 10 -15 7 -18z m-19 -18 c0 -9 -2 -9 -5 0 -3 7 -13 9 -22 6 -14 -4
-14 -3 -2 5 16 12 30 7 29 -11z m-2236 -27 c-3 -11 -7 -20 -9 -20 -2 0 -4 9
-4 20 0 11 4 20 9 20 5 0 7 -9 4 -20z m2727 -22 c0 -5 -7 -3 -15 6 -8 8 -15
18 -15 22 0 3 7 1 15 -6 8 -7 15 -17 15 -22z m-335 -18 c3 -5 1 -10 -4 -10 -6
0 -11 5 -11 10 0 6 2 10 4 10 3 0 8 -4 11 -10z m323 -25 c-3 -3 -9 2 -12 12
-6 14 -5 15 5 6 7 -7 10 -15 7 -18z m57 -53 c-3 -3 -11 0 -18 7 -9 10 -8 11 6
5 10 -3 15 -9 12 -12z m-95 -36 c0 -2 -7 -9 -15 -16 -13 -11 -14 -10 -9 4 5
14 24 23 24 12z m106 -29 c2 -12 0 -16 -2 -9 -3 6 -11 9 -17 5 -8 -5 -8 -2 0
9 7 8 11 18 8 21 -3 4 -2 5 2 2 4 -3 8 -16 9 -28z m-93 -22 c-3 -9 -8 -14 -10
-11 -3 3 -2 9 2 15 9 16 15 13 8 -4z m-22 -22 c12 -16 12 -17 -2 -6 -9 7 -19
10 -22 6 -4 -3 -7 -1 -7 5 0 17 16 15 31 -5z m-1944 -40 c-4 -3 -1 -13 6 -22
11 -14 10 -14 -5 -2 -16 12 -16 31 -1 31 4 0 3 -3 0 -7z m10 -100 c1 -53 -7
-66 -14 -21 -2 12 -7 25 -11 28 -14 9 -8 46 8 47 12 1 15 -11 17 -54z m34 20
c13 -16 12 -17 -3 -4 -10 7 -18 15 -18 17 0 8 8 3 21 -13z m-57 -54 c-3 -5
-10 -7 -15 -3 -5 3 -7 10 -3 15 3 5 10 7 15 3 5 -3 7 -10 3 -15z m9 -58 c-4
-3 -11 -10 -15 -15 -4 -4 -6 1 -5 12 1 12 6 18 15 15 7 -3 10 -9 5 -12z m-263
-1 c0 -5 -5 -10 -11 -10 -5 0 -8 -4 -4 -9 3 -5 1 -12 -4 -15 -16 -10 -24 14
-11 29 14 17 30 20 30 5z m330 3 c0 -20 -48 -85 -54 -74 -4 6 -2 11 5 11 10 0
10 3 1 12 -7 7 -12 19 -11 28 0 8 5 4 10 -10 8 -20 12 -22 19 -10 5 8 10 23
10 33 0 9 5 17 10 17 6 0 10 -3 10 -7z m-360 -48 c12 -14 7 -20 -14 -16 -5 1
-4 -5 4 -13 8 -11 9 -16 1 -16 -6 0 -12 3 -12 8 -9 52 -2 65 21 37z m357 -17
c-3 -8 -6 -5 -6 6 -1 11 2 17 5 13 3 -3 4 -12 1 -19z m84 5 c13 -16 12 -17 -3
-4 -10 7 -18 15 -18 17 0 8 8 3 21 -13z m-55 -45 c-10 -6 -23 -5 -33 2 -15 9
-14 10 6 4 16 -4 21 -3 17 5 -5 7 -1 8 10 4 15 -5 15 -7 0 -15z m-42 -16 c3
-5 -1 -9 -9 -9 -8 0 -12 4 -9 9 3 4 7 8 9 8 2 0 6 -4 9 -8z m38 -50 c9 -9 15
-9 26 0 22 19 38 17 39 -4 2 -16 -1 -17 -13 -8 -11 10 -17 10 -28 1 -10 -8
-16 -9 -21 -1 -3 6 -10 8 -15 5 -4 -3 -13 2 -19 9 -10 11 -9 14 4 12 8 -1 20
-7 27 -14z m88 -42 c0 -5 -5 -10 -11 -10 -5 0 -7 5 -4 10 3 6 8 10 11 10 2 0
4 -4 4 -10z m-3 -26 c-3 -3 -12 -4 -19 -1 -8 3 -5 6 6 6 11 1 17 -2 13 -5z
m-17 -44 c0 -10 -38 -1 -45 10 -2 4 7 5 20 2 14 -2 25 -8 25 -12z m75 -8 c-5
-4 -10 -13 -11 -19 -2 -28 -5 -33 -16 -33 -9 0 -9 3 0 12 18 18 14 30 -7 19
-18 -10 -31 -6 -31 11 0 5 10 6 21 3 15 -5 19 -4 15 4 -5 7 2 11 16 11 13 0
19 -4 13 -8z m38 -45 c4 3 7 1 7 -5 0 -15 -13 -15 -28 0 -9 9 -12 9 -12 0 0
-6 8 -16 18 -21 10 -7 12 -11 4 -11 -9 0 -11 -7 -7 -19 5 -16 2 -18 -14 -14
-11 3 -22 11 -25 19 -3 8 -12 11 -23 7 -19 -7 -18 -5 11 17 11 8 17 10 13 4
-4 -7 -1 -17 7 -23 17 -14 30 11 14 27 -15 15 0 36 16 23 7 -6 16 -8 19 -4z
m-89 -13 c3 -8 2 -12 -4 -9 -6 3 -10 10 -10 16 0 14 7 11 14 -7z m130 -105
c16 -27 23 -54 8 -34 -4 6 -18 16 -32 23 l-25 12 25 -6 c34 -9 17 8 -23 22
l-32 12 31 -1 c23 0 36 -7 48 -28z m-89 -52 c-9 -5 -19 -6 -22 -3 -4 3 -1 6 5
6 7 0 12 5 12 11 0 5 -5 7 -12 3 -7 -4 -8 -3 -4 5 6 9 11 9 23 0 12 -11 12
-14 -2 -22z m61 -2 c-3 -14 0 -26 5 -26 5 -1 13 -2 18 -3 5 0 13 -4 16 -8 4
-4 17 -3 29 3 20 10 20 9 2 -5 -10 -9 -23 -13 -29 -9 -5 3 -7 0 -5 -8 3 -8 11
-13 17 -11 7 1 10 -2 6 -8 -5 -8 -11 -8 -19 -1 -7 6 -16 8 -19 4 -4 -3 -7 -1
-7 5 0 7 -7 12 -16 12 -10 0 -14 6 -11 15 4 8 2 17 -3 20 -6 4 -5 14 3 25 16
26 18 25 13 -5z m68 -10 c-4 -8 -7 -15 -9 -15 -2 0 -5 7 -9 15 -3 9 0 15 9 15
9 0 12 -6 9 -15z m-97 -37 c-3 -8 -6 -5 -6 6 -1 11 2 17 5 13 3 -3 4 -12 1
-19z m126 -12 c4 -10 1 -13 -8 -9 -8 3 -12 9 -9 14 7 12 11 11 17 -5z m-93
-14 c0 -5 -7 -9 -15 -9 -8 0 -15 4 -15 9 0 4 7 8 15 8 8 0 15 -4 15 -8z m94
-28 c10 -26 7 -34 -11 -34 -14 0 -15 -2 -5 -9 11 -7 11 -9 -2 -14 -24 -9 -29
11 -6 25 11 7 20 16 20 21 0 4 -4 5 -10 2 -5 -3 -10 1 -10 9 0 21 16 21 24 0z
m-74 -13 c0 -4 -6 -15 -13 -25 -12 -16 -14 -16 -14 -2 0 9 5 16 10 16 5 0 4 7
-3 15 -11 13 -10 14 4 9 9 -3 16 -9 16 -13z m116 -47 c18 -15 18 -15 -2 -5
-12 6 -24 7 -28 4 -3 -3 -6 -1 -6 5 0 16 12 15 36 -4z m-13 -48 c21 -3 27 0
23 11 -3 8 -1 11 4 8 5 -3 7 -19 4 -34 -3 -16 -1 -39 6 -51 11 -21 10 -22 -25
-17 -35 5 -37 4 -32 -21 6 -29 -1 -52 -15 -52 -5 0 -6 6 -1 13 4 6 6 22 4 35
-1 13 3 30 11 39 11 15 11 16 -5 10 -11 -4 -16 -3 -12 4 4 6 -2 13 -14 16 -11
3 -18 9 -15 14 3 5 10 7 15 4 5 -4 9 -1 9 4 0 6 -8 11 -17 12 -11 0 -13 3 -5
6 6 2 12 12 12 21 0 14 2 14 13 -2 7 -9 25 -19 40 -20z m-128 2 c6 -4 2 -8 -7
-8 -10 0 -18 7 -18 17 0 9 3 12 8 7 4 -5 12 -12 17 -16z m22 -10 c-3 -8 -6 -5
-6 6 -1 11 2 17 5 13 3 -3 4 -12 1 -19z m162 -35 c10 -19 9 -22 -4 -17 -8 4
-15 15 -15 27 0 23 2 22 19 -10z m-49 -88 c0 -5 -5 -3 -10 5 -5 8 -10 20 -10
25 0 6 5 3 10 -5 5 -8 10 -19 10 -25z m41 13 c-13 -4 -19 -13 -15 -19 4 -8 9
-7 16 2 7 11 8 11 6 -1 -1 -8 2 -26 6 -39 5 -13 4 -27 -2 -33 -6 -6 -8 -18 -5
-27 5 -12 3 -13 -6 -5 -10 9 -10 17 -2 32 15 28 14 37 -4 22 -8 -6 -22 -10
-32 -7 -14 4 -13 5 5 6 12 0 22 5 22 11 0 5 -8 7 -17 4 -14 -5 -15 -4 -4 4 8
6 11 17 8 26 -10 26 2 44 25 38 21 -5 21 -5 -1 -14z m-1008 -38 c-3 -12 -8
-19 -11 -16 -5 6 5 36 12 36 2 0 2 -9 -1 -20z m-640 -15 c-18 -13 -40 -66 -36
-86 1 -3 -8 -11 -19 -18 -20 -12 -21 -11 -14 19 3 18 6 41 6 51 0 12 12 24 33
33 43 19 56 19 30 1z m204 -57 c-3 -8 -6 -5 -6 6 -1 11 2 17 5 13 3 -3 4 -12
1 -19z m1419 -11 c-3 -12 -5 -24 -5 -27 -2 -7 -21 23 -21 33 0 5 5 5 12 1 8
-5 9 -2 5 10 -4 10 -3 15 3 11 5 -3 8 -16 6 -28z m-1380 -4 c-7 -7 -26 7 -26
19 0 6 6 6 15 -2 9 -7 13 -15 11 -17z m1494 3 c0 -3 -4 -8 -10 -11 -5 -3 -10
-1 -10 4 0 6 5 11 10 11 6 0 10 -2 10 -4z m-1455 -27 c-4 -5 -12 -9 -18 -8 -9
0 -8 2 1 6 6 2 9 10 6 15 -4 7 -2 8 5 4 6 -4 9 -12 6 -17z m23 -18 c-1 -21 -8
-32 -27 -40 l-26 -11 23 19 c13 11 23 22 22 25 -1 20 1 36 4 36 3 0 4 -13 4
-29z m56 -22 c-2 -5 -14 -1 -24 9 -26 22 -25 24 5 10 13 -6 22 -15 19 -19z
m-126 1 c12 -20 6 -26 -13 -12 -12 9 -18 32 -7 32 4 0 13 -9 20 -20z m132 -44
c0 -4 -7 -5 -16 -2 -8 3 -12 2 -9 -4 8 -13 2 -13 -30 2 -24 11 -24 12 -8 28
17 16 20 16 40 1 12 -9 23 -20 23 -25z m63 35 c4 -1 7 -5 7 -10 0 -6 -10 -7
-22 -5 -13 3 -28 6 -35 6 -7 1 -10 4 -8 8 2 4 14 6 27 4 13 -1 26 -3 31 -3z
m-499 -17 c5 -14 4 -15 -9 -4 -17 14 -19 20 -6 20 5 0 12 -7 15 -16z m579 -43
c-1 -5 7 -6 19 -3 15 4 19 2 14 -7 -5 -8 -3 -12 5 -10 25 3 40 -1 35 -9 -2 -4
4 -8 14 -9 10 -1 35 -13 57 -26 21 -13 49 -28 63 -32 14 -4 79 -33 145 -65 66
-32 144 -65 172 -75 29 -9 55 -21 58 -26 4 -5 13 -9 22 -9 14 0 66 -21 225
-92 26 -12 45 -24 43 -28 -6 -9 66 -31 78 -23 6 3 7 1 3 -5 -4 -7 -1 -12 9
-12 8 0 18 -7 21 -15 4 -8 10 -13 14 -10 4 3 14 -3 21 -13 13 -15 12 -16 -3
-4 -9 8 -19 9 -22 4 -3 -6 1 -13 10 -16 9 -4 15 -9 12 -11 -15 -16 -349 124
-569 239 -59 30 -130 62 -158 72 -28 9 -49 20 -46 24 3 5 -5 6 -17 2 -16 -4
-19 -2 -13 8 6 10 4 12 -8 7 -9 -3 -19 -1 -23 5 -5 7 -2 8 7 4 8 -4 5 0 -6 8
-11 9 -25 14 -33 11 -8 -3 -10 0 -6 7 5 8 2 9 -10 5 -11 -5 -15 -3 -10 5 5 7
-2 9 -22 5 -16 -3 -23 -4 -16 -1 21 10 13 21 -13 19 -14 -2 -23 1 -20 5 4 7
-29 24 -45 23 -3 -1 -22 8 -43 18 -21 11 -41 18 -45 16 -4 -3 -16 -1 -27 4
-18 7 -18 8 -2 8 10 1 16 5 13 9 -2 4 -1 14 5 22 7 13 9 12 9 -2 0 -9 5 -20
12 -24 8 -5 9 -2 5 10 -12 31 3 38 36 16 18 -11 31 -24 30 -29z m-106 33 c-3
-3 -12 -4 -19 -1 -8 3 -5 6 6 6 11 1 17 -2 13 -5z m-475 -18 c6 4 8 1 6 -7 -3
-8 -11 -13 -17 -11 -7 1 -10 -2 -7 -7 4 -5 2 -12 -4 -16 -6 -3 -10 4 -10 18 0
26 12 45 18 28 2 -6 8 -8 14 -5z m458 -6 c-20 -13 -33 -13 -25 0 3 6 14 10 23
10 15 0 15 -2 2 -10z m1290 -496 c0 -3 -13 -3 -29 -2 -16 1 -28 5 -26 9 5 6
55 0 55 -7z m46 -31 c5 4 2 12 -6 17 -13 8 -12 10 3 10 9 0 17 -4 17 -10 0 -5
3 -9 8 -9 19 3 28 -3 29 -21 1 -11 -2 -22 -7 -25 -4 -2 -7 3 -6 11 1 22 -32
26 -43 6 -8 -13 -13 -14 -33 -4 -23 12 -23 12 0 8 22 -4 30 8 12 19 -5 3 -10
11 -10 18 0 6 6 2 14 -9 8 -10 18 -15 22 -11z m109 -20 c0 -11 -3 -19 -7 -16
-5 2 -8 -2 -9 -9 0 -10 -2 -10 -6 0 -2 6 -9 10 -14 6 -5 -3 -9 0 -9 5 0 6 8
12 18 12 16 1 16 2 0 6 -25 6 -22 18 5 18 16 0 22 -6 22 -22z m40 17 c3 -6 -1
-7 -9 -4 -18 7 -21 14 -7 14 6 0 13 -4 16 -10z m945 -31 c0 -14 -16 -11 -29 5
-10 12 -8 13 8 9 12 -3 21 -9 21 -14z m-1070 1 c0 -5 -2 -10 -4 -10 -3 0 -8 5
-11 10 -3 6 -1 10 4 10 6 0 11 -4 11 -10z m166 -19 c1 -6 0 -7 -3 -1 -2 5 -9
8 -13 5 -5 -3 -11 -1 -14 4 -4 5 2 8 11 7 9 -2 18 -8 19 -15z m901 -23 c-3 -8
-6 -5 -6 6 -1 11 2 17 5 13 3 -3 4 -12 1 -19z m21 -37 c8 -1 12 -11 10 -28 -2
-22 -8 -27 -23 -25 -11 2 -37 3 -57 4 -32 0 -38 3 -38 22 0 13 2 25 4 27 4 3
61 4 104 0z"/>
<path d="M1740 4140 c0 -6 7 -10 15 -10 8 0 15 2 15 4 0 2 -7 6 -15 10 -8 3
-15 1 -15 -4z"/>
<path d="M2158 3793 c7 -3 16 -2 19 1 4 3 -2 6 -13 5 -11 0 -14 -3 -6 -6z"/>
<path d="M1336 3283 c-6 -14 -5 -15 5 -6 7 7 10 15 7 18 -3 3 -9 -2 -12 -12z"/>
<path d="M2406 2978 c3 -5 10 -6 15 -3 13 9 11 12 -6 12 -8 0 -12 -4 -9 -9z"/>
<path d="M2498 2953 c7 -3 16 -2 19 1 4 3 -2 6 -13 5 -11 0 -14 -3 -6 -6z"/>
<path d="M2206 2743 c9 -38 14 -42 14 -10 0 14 -5 29 -10 32 -7 4 -8 -3 -4
-22z"/>
<path d="M1920 2650 c0 -5 5 -10 11 -10 5 0 7 5 4 10 -3 6 -8 10 -11 10 -2 0
-4 -4 -4 -10z"/>
<path d="M1580 2566 c0 -2 7 -7 16 -10 8 -3 12 -2 9 4 -6 10 -25 14 -25 6z"/>
<path d="M3021 2455 c0 -18 28 -61 29 -44 0 8 -7 24 -15 35 -8 10 -14 15 -14
9z"/>
<path d="M1770 2410 c0 -11 4 -20 9 -20 5 0 7 9 4 20 -3 11 -7 20 -9 20 -2 0
-4 -9 -4 -20z"/>
<path d="M2344 2286 c-6 -16 29 -99 71 -171 17 -27 68 -88 115 -136 86 -88
105 -99 197 -112 24 -4 33 -1 36 11 4 15 5 15 6 0 2 -29 30 -21 114 29 5 3 0
11 -10 18 -10 7 -14 17 -10 22 5 4 13 0 18 -10 6 -9 16 -17 24 -17 20 0 115
51 115 62 0 5 4 7 9 4 4 -3 13 6 20 20 13 30 14 37 3 30 -5 -3 -16 8 -25 23
-9 16 -28 32 -42 35 -14 4 -25 11 -25 16 0 6 -6 10 -14 10 -7 0 -19 6 -25 14
-13 15 -54 29 -46 16 3 -5 30 -23 61 -41 64 -36 88 -74 61 -94 -9 -7 -29 -10
-44 -7 -24 5 -25 6 -8 18 22 16 14 41 -17 53 -13 5 -35 20 -50 34 -15 14 -29
22 -32 19 -3 -3 -6 -1 -6 5 0 6 -20 16 -44 22 -25 6 -48 15 -51 21 -3 5 -12
10 -20 10 -20 0 -69 20 -63 25 2 3 45 -9 93 -25 101 -34 104 -26 5 13 -72 27
-133 43 -111 29 24 -17 -7 -24 -45 -12 -19 7 -44 10 -55 7 -10 -3 -17 -1 -13
4 3 5 -3 9 -13 10 -10 0 -36 7 -58 15 -27 9 -32 13 -13 10 15 -2 33 1 40 6 10
7 9 8 -4 4 -10 -3 -20 -1 -23 3 -2 5 -18 7 -35 6 -17 -1 -33 1 -36 6 -8 14
-44 10 -50 -5z m356 -106 c8 -5 11 -10 5 -10 -5 0 -17 5 -25 10 -8 5 -10 10
-5 10 6 0 17 -5 25 -10z m-83 -66 c-3 -3 -12 -4 -19 -1 -8 3 -5 6 6 6 11 1 17
-2 13 -5z m-65 -34 c20 -18 20 -20 4 -26 -18 -7 -36 9 -36 34 0 17 7 15 32 -8z
m90 5 c2 3 5 -2 5 -10 0 -10 -4 -12 -12 -5 -7 5 -14 8 -17 5 -2 -3 -5 2 -5 10
0 10 4 12 12 5 7 -5 14 -8 17 -5z m85 1 c0 -15 -21 -16 -34 -1 -4 4 -3 5 4 1
6 -3 14 -2 18 4 8 14 12 13 12 -4z m-219 -21 c-3 -3 -9 2 -12 12 -6 14 -5 15
5 6 7 -7 10 -15 7 -18z m263 8 c13 -16 12 -17 -3 -4 -17 13 -22 21 -14 21 2 0
10 -8 17 -17z m-185 -30 c-2 -10 4 -24 13 -30 14 -11 14 -14 1 -22 -11 -8 -17
-5 -22 8 -4 11 -12 22 -18 26 -8 5 -5 11 7 21 23 17 22 17 19 -3z m179 7 c4
-6 3 -9 -2 -8 -15 4 -51 -26 -46 -39 3 -7 9 -10 14 -7 16 10 9 -3 -8 -17 -10
-7 -15 -10 -11 -5 4 5 3 17 -3 27 -7 15 -6 21 6 25 8 3 12 11 8 17 -3 5 -1 7
5 3 6 -3 13 -2 17 4 8 13 12 13 20 0z m-229 -40 c0 -12 -4 -16 -9 -11 -5 5 -6
14 -3 20 10 15 12 14 12 -9z m243 -82 c-8 -15 -13 -16 -29 -6 -24 15 -19 24
14 24 20 0 23 -3 15 -18z m21 -25 c-11 -17 -11 -17 -6 0 3 10 7 26 7 35 1 15
2 15 6 0 2 -10 -1 -25 -7 -35z"/>
<path d="M2515 2264 c30 -12 115 -30 115 -24 0 9 -80 30 -107 29 -10 0 -13 -2
-8 -5z"/>
<path d="M3460 2201 c0 -5 7 -12 16 -15 14 -5 15 -4 4 9 -14 17 -20 19 -20 6z"/>
<path d="M1384 2614 c-7 -28 7 -44 37 -44 24 0 33 42 12 58 -26 19 -42 14 -49
-14z"/>
<path d="M1321 2951 c-7 -5 -9 -11 -4 -14 4 -3 17 1 28 9 21 16 0 20 -24 5z"/>
<path d="M1335 2929 c-11 -16 -1 -19 13 -3 7 8 8 14 3 14 -5 0 -13 -5 -16 -11z"/>
<path d="M1286 2890 c-18 -42 -16 -71 6 -69 9 0 9 2 2 5 -13 6 4 64 18 64 4 0
8 9 8 20 0 32 -15 23 -34 -20z"/>
<path d="M856 2968 c3 -5 10 -6 15 -3 13 9 11 12 -6 12 -8 0 -12 -4 -9 -9z"/>
<path d="M3004 2724 c3 -8 1 -14 -4 -14 -14 0 -12 -27 2 -36 6 -4 8 -3 5 3 -3
5 3 16 14 23 24 18 24 26 -2 33 -15 4 -19 2 -15 -9z"/>
<path d="M1840 1715 c0 -7 30 -13 34 -7 3 4 -4 9 -15 9 -10 1 -19 0 -19 -2z"/>
<path d="M1938 1525 c2 -13 13 -27 23 -30 10 -4 19 -11 19 -16 0 -6 4 -8 8 -5
13 8 1 68 -12 63 -6 -2 -18 -1 -27 4 -13 7 -15 4 -11 -16z m34 -17 c-7 -7 -12
-8 -12 -2 0 6 3 14 7 17 3 4 9 5 12 2 2 -3 -1 -11 -7 -17z"/>
<path d="M836 1186 c6 -17 34 -30 34 -16 0 5 -9 14 -20 20 -16 8 -18 8 -14 -4z"/>
<path d="M4291 4595 c0 -5 3 -16 8 -23 7 -11 9 -10 14 3 4 9 3 14 -2 10 -5 -3
-12 1 -14 7 -3 7 -6 9 -6 3z"/>
<path d="M4330 4596 c0 -2 8 -10 18 -17 15 -13 16 -12 3 4 -13 16 -21 21 -21
13z"/>
<path d="M124 4582 c4 -3 14 -7 22 -8 9 -1 13 0 10 4 -4 3 -14 7 -22 8 -9 1
-13 0 -10 -4z"/>
<path d="M1006 4573 c-4 -9 -3 -20 1 -24 4 -4 9 3 9 17 2 28 -1 31 -10 7z"/>
<path d="M35 4573 c3 -3 -3 -11 -12 -18 -13 -9 -13 -14 -3 -20 9 -6 11 -4 5 5
-6 10 -4 12 7 7 16 -6 20 17 5 28 -4 3 -5 2 -2 -2z"/>
<path d="M260 4576 c0 -2 8 -10 18 -17 15 -13 16 -12 3 4 -13 16 -21 21 -21
13z"/>
<path d="M315 4571 c-3 -5 -2 -12 3 -15 5 -3 9 1 9 9 0 17 -3 19 -12 6z"/>
<path d="M4588 4550 c-3 -17 -2 -33 2 -35 3 -2 7 12 8 31 3 42 -4 45 -10 4z"/>
<path d="M1079 4543 l-24 -28 28 24 c25 23 32 31 24 31 -2 0 -14 -12 -28 -27z"/>
<path d="M85 4551 c-3 -5 -2 -12 3 -15 5 -3 9 1 9 9 0 17 -3 19 -12 6z"/>
<path d="M124 4542 c2 -9 10 -16 20 -18 13 -2 14 1 7 10 -6 7 -9 15 -6 18 3 2
-1 5 -9 5 -7 0 -13 -7 -12 -15z"/>
<path d="M222 4540 c0 -14 2 -19 5 -12 2 6 2 18 0 25 -3 6 -5 1 -5 -13z"/>
<path d="M445 4549 c-4 -6 -5 -12 -2 -15 2 -3 7 2 10 11 7 17 1 20 -8 4z"/>
<path d="M671 4548 c-1 -9 4 -20 9 -23 6 -4 8 -10 6 -14 -3 -4 1 -8 9 -8 13 0
13 3 1 16 -7 9 -16 23 -19 31 -4 12 -6 12 -6 -2z"/>
<path d="M4443 4545 c0 -8 4 -12 9 -9 5 3 6 10 3 15 -9 13 -12 11 -12 -6z"/>
<path d="M4405 4530 c3 -5 8 -10 11 -10 2 0 4 5 4 10 0 6 -5 10 -11 10 -5 0
-7 -4 -4 -10z"/>
<path d="M4003 4515 c0 -8 4 -12 9 -9 5 3 6 10 3 15 -9 13 -12 11 -12 -6z"/>
<path d="M4195 4520 c-3 -5 -1 -10 4 -10 6 0 11 5 11 10 0 6 -2 10 -4 10 -3 0
-8 -4 -11 -10z"/>
<path d="M1034 4508 c-4 -7 -14 -24 -23 -38 l-15 -25 25 25 c20 21 34 50 23
50 -2 0 -6 -6 -10 -12z"/>
<path d="M4458 4503 c6 -2 18 -2 25 0 6 3 1 5 -13 5 -14 0 -19 -2 -12 -5z"/>
<path d="M4580 4491 c0 -5 5 -13 10 -16 6 -3 10 -2 10 4 0 5 -4 13 -10 16 -5
3 -10 2 -10 -4z"/>
<path d="M725 4479 c-4 -6 -5 -12 -2 -15 2 -3 7 2 10 11 7 17 1 20 -8 4z"/>
<path d="M4390 4485 c0 -2 6 -8 13 -14 10 -8 14 -7 14 2 0 8 -6 14 -14 14 -7
0 -13 -1 -13 -2z"/>
<path d="M4450 4478 c0 -4 4 -8 9 -8 6 0 12 4 15 8 3 5 -1 9 -9 9 -8 0 -15 -4
-15 -9z"/>
<path d="M100 4460 c-9 -6 -10 -10 -3 -10 6 0 15 5 18 10 8 12 4 12 -15 0z"/>
<path d="M150 4440 c0 -5 5 -10 11 -10 5 0 7 5 4 10 -3 6 -8 10 -11 10 -2 0
-4 -4 -4 -10z"/>
<path d="M964 4415 c-9 -14 -19 -23 -23 -21 -4 3 -7 -4 -7 -15 0 -19 1 -20 14
-2 7 10 22 28 32 41 11 12 16 22 10 22 -5 0 -17 -11 -26 -25z"/>
<path d="M109 4413 c-13 -17 -13 -17 6 -3 11 8 22 16 24 17 2 2 0 3 -6 3 -6 0
-17 -8 -24 -17z"/>
<path d="M261 4407 c-13 -21 -12 -21 5 -5 10 10 16 20 13 22 -3 3 -11 -5 -18
-17z"/>
<path d="M855 4420 c-3 -6 1 -7 9 -4 18 7 21 14 7 14 -6 0 -13 -4 -16 -10z"/>
<path d="M289 4393 c-12 -16 -12 -17 2 -6 9 7 20 9 24 5 5 -4 5 -1 1 6 -9 16
-11 15 -27 -5z"/>
<path d="M4591 4394 c0 -11 3 -14 6 -6 3 7 2 16 -1 19 -3 4 -6 -2 -5 -13z"/>
<path d="M886 4388 c3 -5 10 -6 15 -3 13 9 11 12 -6 12 -8 0 -12 -4 -9 -9z"/>
<path d="M751 4381 c-11 -7 -9 -10 8 -16 13 -4 25 -4 28 -1 4 3 -1 6 -11 6 -9
0 -14 5 -11 10 8 12 4 12 -14 1z"/>
<path d="M4584 4327 c-1 -30 -1 -30 9 -9 6 14 7 26 1 32 -5 5 -9 -4 -10 -23z"/>
<path d="M905 4329 c-6 -17 -9 -19 -16 -8 -6 9 -9 10 -9 2 0 -23 18 -22 34 2
9 14 12 25 7 25 -5 0 -13 -10 -16 -21z"/>
<path d="M1130 4330 c-9 -6 -10 -10 -3 -10 6 0 15 5 18 10 8 12 4 12 -15 0z"/>
<path d="M4516 4332 c-3 -5 1 -9 9 -9 8 0 12 4 9 9 -3 4 -7 8 -9 8 -2 0 -6 -4
-9 -8z"/>
<path d="M160 4300 c-8 -5 -10 -10 -5 -10 6 0 17 5 25 10 8 5 11 10 5 10 -5 0
-17 -5 -25 -10z"/>
<path d="M799 4293 c-13 -16 -12 -17 4 -4 9 7 17 15 17 17 0 8 -8 3 -21 -13z"/>
<path d="M864 4301 c4 -6 0 -14 -8 -17 -9 -3 -16 -10 -16 -15 0 -15 15 -10 27
11 9 14 10 21 1 26 -7 4 -8 3 -4 -5z"/>
<path d="M109 4283 c-13 -16 -12 -17 4 -4 9 7 17 15 17 17 0 8 -8 3 -21 -13z"/>
<path d="M225 4291 c-6 -11 13 -26 22 -17 4 3 1 6 -6 6 -7 0 -9 5 -6 10 3 6 4
10 1 10 -3 0 -7 -4 -11 -9z"/>
<path d="M269 4283 c-7 -10 -9 -15 -5 -11 5 4 15 3 22 -3 8 -7 14 -7 19 1 4 6
3 10 -2 9 -20 -3 -27 2 -13 11 8 5 10 10 4 10 -6 0 -18 -8 -25 -17z"/>
<path d="M395 4290 c-3 -5 -1 -10 4 -10 6 0 11 5 11 10 0 6 -2 10 -4 10 -3 0
-8 -4 -11 -10z"/>
<path d="M4593 4250 c0 -25 2 -35 4 -22 2 12 2 32 0 45 -2 12 -4 2 -4 -23z"/>
<path d="M1000 4224 c-25 -24 -42 -44 -38 -44 10 0 92 79 87 84 -2 2 -24 -16
-49 -40z"/>
<path d="M4530 4266 c0 -2 8 -10 18 -17 15 -13 16 -12 3 4 -13 16 -21 21 -21
13z"/>
<path d="M829 4232 c-12 -14 -46 -76 -55 -102 -1 -3 -5 -15 -9 -27 -4 -13 -11
-23 -14 -23 -4 0 -8 -6 -9 -12 -4 -45 -25 -107 -34 -102 -7 4 -8 2 -4 -4 4 -6
4 -23 0 -37 -5 -21 -9 -24 -16 -13 -7 10 -8 8 -4 -5 7 -23 -3 -69 -14 -62 -5
3 -6 -5 -2 -17 4 -16 2 -19 -8 -13 -8 5 -11 4 -6 -3 8 -13 -58 -155 -68 -145
-4 4 -4 -1 0 -11 6 -15 4 -17 -6 -11 -9 5 -11 4 -6 -3 4 -6 -1 -26 -10 -44
-10 -18 -18 -40 -19 -48 -1 -14 -20 -79 -32 -110 -10 -26 -12 -33 -25 -107 -7
-39 -16 -75 -20 -78 -4 -4 -4 -25 -2 -48 4 -27 1 -43 -8 -48 -10 -7 -10 -9 0
-9 6 0 12 -6 12 -14 0 -8 -6 -17 -12 -19 -10 -4 -10 -6 0 -6 7 -1 12 -15 12
-35 0 -19 -6 -37 -12 -39 -8 -4 -7 -6 3 -6 14 -1 34 -49 31 -72 -1 -4 10 -17
23 -29 29 -27 31 -21 9 22 -13 25 -14 32 -2 40 10 8 9 9 -4 5 -11 -4 -18 2
-22 16 -11 40 -6 128 10 185 33 123 66 222 73 222 4 0 8 6 8 13 0 6 8 28 17
47 l17 35 -5 -31 c-3 -20 1 -39 10 -50 15 -18 15 -18 6 1 -11 26 -7 114 6 127
6 6 9 -1 7 -24 -2 -18 -1 -36 2 -40 2 -4 5 -47 7 -95 2 -49 9 -101 16 -118 7
-16 19 -45 27 -64 13 -29 13 -41 1 -91 -8 -31 -12 -63 -9 -71 2 -7 12 25 22
71 20 97 22 110 11 92 -13 -20 -43 101 -51 201 -3 49 -2 87 3 87 4 0 2 8 -5
17 -8 9 -9 14 -3 10 8 -5 14 9 19 41 4 26 14 63 22 82 9 19 15 38 15 43 -1 4
2 7 8 7 5 0 10 8 10 18 1 15 2 15 15 -2 8 -11 15 -15 15 -10 0 6 -6 16 -12 23
-11 11 -8 12 12 6 16 -4 20 -3 12 3 -7 5 -10 16 -6 26 5 14 9 15 16 4 8 -10 9
-10 5 2 -2 8 0 23 5 34 8 15 12 16 20 5 7 -10 8 -8 3 7 -4 16 7 34 45 75 27
30 50 58 50 62 0 16 -95 -95 -162 -189 -65 -89 -158 -246 -158 -266 0 -5 -9
-26 -20 -48 -16 -32 -63 -164 -84 -235 -3 -11 -3 5 0 35 14 142 95 384 172
510 45 75 62 117 41 105 -8 -5 -11 -4 -6 1 5 5 13 9 17 9 5 0 34 34 65 75 70
94 103 134 138 171 15 16 27 33 27 39 0 11 -24 -11 -57 -54 -13 -16 -23 -22
-23 -15 0 8 -16 -13 -36 -46 -19 -33 -41 -64 -47 -70 -7 -5 -23 -27 -37 -47
-14 -21 -28 -38 -32 -38 -11 0 -11 -3 16 76 49 137 57 158 76 184 11 15 17 30
13 34 -3 3 -1 6 5 6 7 0 12 7 12 15 0 7 8 19 18 24 13 8 14 10 2 10 -8 0 -22
-8 -31 -17z m-158 -648 c-6 -28 -9 -32 -10 -14 -1 30 11 79 16 64 2 -6 -1 -28
-6 -50z"/>
<path d="M261 4223 c-1 -17 16 -25 25 -12 4 7 3 9 -4 5 -5 -3 -13 0 -15 6 -4
9 -6 10 -6 1z"/>
<path d="M379 4213 c-13 -16 -12 -17 4 -4 9 7 17 15 17 17 0 8 -8 3 -21 -13z"/>
<path d="M506 4213 c-6 -14 -5 -15 5 -6 7 7 10 15 7 18 -3 3 -9 -2 -12 -12z"/>
<path d="M1205 4210 c-3 -5 -1 -10 4 -10 6 0 11 5 11 10 0 6 -2 10 -4 10 -3 0
-8 -4 -11 -10z"/>
<path d="M732 4201 c5 -19 45 -33 45 -16 0 7 -7 11 -15 8 -8 -3 -18 0 -24 8
-8 12 -9 12 -6 0z"/>
<path d="M4446 4188 c3 -5 10 -6 15 -3 13 9 11 12 -6 12 -8 0 -12 -4 -9 -9z"/>
<path d="M4593 4150 c0 -30 2 -43 4 -27 2 15 2 39 0 55 -2 15 -4 2 -4 -28z"/>
<path d="M670 4181 c0 -6 4 -13 10 -16 6 -3 7 1 4 9 -7 18 -14 21 -14 7z"/>
<path d="M1172 4181 c-11 -7 -11 -9 0 -14 9 -3 15 1 15 9 0 8 -1 14 -1 14 -1
0 -7 -4 -14 -9z"/>
<path d="M100 4169 c0 -5 5 -7 10 -4 6 3 10 8 10 11 0 2 -4 4 -10 4 -5 0 -10
-5 -10 -11z"/>
<path d="M247 4169 c7 -7 15 -10 18 -7 3 3 -2 9 -12 12 -14 6 -15 5 -6 -5z"/>
<path d="M344 4162 c3 -5 0 -13 -6 -15 -9 -4 -10 -6 -1 -6 17 -1 25 16 12 25
-7 4 -9 3 -5 -4z"/>
<path d="M1124 4148 l-19 -23 23 19 c12 11 22 21 22 23 0 8 -8 2 -26 -19z"/>
<path d="M4390 4150 c-9 -6 -10 -10 -3 -10 6 0 15 5 18 10 8 12 4 12 -15 0z"/>
<path d="M75 4140 c-3 -6 1 -7 9 -4 18 7 21 14 7 14 -6 0 -13 -4 -16 -10z"/>
<path d="M369 4133 c-13 -16 -12 -17 4 -4 9 7 17 15 17 17 0 8 -8 3 -21 -13z"/>
<path d="M120 4136 c0 -2 9 -6 20 -9 11 -3 18 -1 14 4 -5 9 -34 13 -34 5z"/>
<path d="M454 4114 c-18 -14 -18 -15 4 -4 12 6 22 13 22 15 0 8 -5 6 -26 -11z"/>
<path d="M50 4111 c0 -6 4 -13 10 -16 6 -3 7 1 4 9 -7 18 -14 21 -14 7z"/>
<path d="M505 4111 c-3 -5 -2 -12 3 -15 5 -3 9 1 9 9 0 17 -3 19 -12 6z"/>
<path d="M555 4110 c-4 -6 -12 -7 -18 -4 -7 4 -9 4 -5 -1 4 -4 3 -17 -3 -29
-10 -21 -10 -21 6 -1 9 11 20 19 24 18 4 -1 8 5 8 13 0 17 -4 18 -12 4z"/>
<path d="M320 4106 c0 -2 8 -10 18 -17 15 -13 16 -12 3 4 -13 16 -21 21 -21
13z"/>
<path d="M373 4095 c0 -8 4 -12 9 -9 5 3 6 10 3 15 -9 13 -12 11 -12 -6z"/>
<path d="M674 4093 c15 -18 21 -20 37 -10 10 6 16 13 13 16 -2 3 -10 -1 -16
-7 -9 -9 -17 -8 -32 6 -21 17 -21 17 -2 -5z"/>
<path d="M1246 4093 c-6 -14 -5 -15 5 -6 7 7 10 15 7 18 -3 3 -9 -2 -12 -12z"/>
<path d="M363 4057 c0 -8 6 -14 14 -14 9 0 10 4 2 14 -6 7 -12 13 -14 13 -1 0
-2 -6 -2 -13z"/>
<path d="M4593 4015 c0 -33 2 -45 4 -27 2 18 2 45 0 60 -2 15 -4 0 -4 -33z"/>
<path d="M215 4050 c3 -5 8 -10 11 -10 2 0 4 5 4 10 0 6 -5 10 -11 10 -5 0 -7
-4 -4 -10z"/>
<path d="M990 4040 c-14 -11 -20 -20 -14 -20 6 0 19 9 29 20 23 25 17 25 -15
0z"/>
<path d="M1266 4043 c-6 -14 -5 -15 5 -6 7 7 10 15 7 18 -3 3 -9 -2 -12 -12z"/>
<path d="M50 4046 c0 -2 8 -10 18 -17 15 -13 16 -12 3 4 -13 16 -21 21 -21 13z"/>
<path d="M125 4041 c-3 -5 -2 -12 3 -15 5 -3 9 1 9 9 0 17 -3 19 -12 6z"/>
<path d="M496 4035 c-11 -8 -15 -15 -9 -15 6 0 16 7 23 15 16 19 11 19 -14 0z"/>
<path d="M4508 4003 c7 -3 16 -2 19 1 4 3 -2 6 -13 5 -11 0 -14 -3 -6 -6z"/>
<path d="M930 3979 c0 -5 5 -7 10 -4 6 3 10 8 10 11 0 2 -4 4 -10 4 -5 0 -10
-5 -10 -11z"/>
<path d="M1036 3975 c-9 -26 -7 -32 5 -12 6 10 9 21 6 23 -2 3 -7 -2 -11 -11z"/>
<path d="M76 3972 c-3 -5 1 -9 9 -9 8 0 12 4 9 9 -3 4 -7 8 -9 8 -2 0 -6 -4
-9 -8z"/>
<path d="M4508 3963 c6 -2 9 -10 6 -15 -4 -7 -2 -8 5 -4 13 9 5 26 -12 25 -9
0 -8 -2 1 -6z"/>
<path d="M181 3934 c0 -11 3 -14 6 -6 3 7 2 16 -1 19 -3 4 -6 -2 -5 -13z"/>
<path d="M444 3938 c-4 -7 -3 -10 1 -5 5 4 18 -1 29 -10 21 -18 21 -18 2 5
-22 26 -23 26 -32 10z"/>
<path d="M4592 3925 c0 -16 2 -22 5 -12 2 9 2 23 0 30 -3 6 -5 -1 -5 -18z"/>
<path d="M255 3923 c11 -12 18 -14 26 -6 8 8 7 13 -2 18 -8 5 -10 4 -5 -3 9
-15 -6 -16 -22 -2 -7 5 -5 2 3 -7z"/>
<path d="M1013 3928 c-18 -24 -24 -38 -16 -38 4 0 13 11 20 25 12 27 11 32 -4
13z"/>
<path d="M1280 3930 c0 -5 5 -10 11 -10 5 0 7 5 4 10 -3 6 -8 10 -11 10 -2 0
-4 -4 -4 -10z"/>
<path d="M413 3897 c0 -8 6 -14 14 -14 9 0 10 4 2 14 -6 7 -12 13 -14 13 -1 0
-2 -6 -2 -13z"/>
<path d="M16 3882 c-3 -5 1 -9 9 -9 8 0 12 4 9 9 -3 4 -7 8 -9 8 -2 0 -6 -4
-9 -8z"/>
<path d="M460 3880 c-9 -6 -10 -10 -3 -10 6 0 15 5 18 10 8 12 4 12 -15 0z"/>
<path d="M4592 3870 c0 -14 2 -19 5 -12 2 6 2 18 0 25 -3 6 -5 1 -5 -13z"/>
<path d="M605 3869 c-4 -6 -5 -12 -2 -15 2 -3 7 2 10 11 7 17 1 20 -8 4z"/>
<path d="M650 3869 c0 -5 5 -7 10 -4 6 3 10 8 10 11 0 2 -4 4 -10 4 -5 0 -10
-5 -10 -11z"/>
<path d="M163 3843 c0 -9 4 -10 14 -2 7 6 13 12 13 14 0 1 -6 2 -13 2 -8 0
-14 -6 -14 -14z"/>
<path d="M960 3835 c0 -8 2 -15 4 -15 2 0 6 7 10 15 3 8 1 15 -4 15 -6 0 -10
-7 -10 -15z"/>
<path d="M4570 3840 c8 -5 20 -10 25 -10 6 0 3 5 -5 10 -8 5 -19 10 -25 10 -5
0 -3 -5 5 -10z"/>
<path d="M4496 3832 c-3 -5 1 -9 9 -9 8 0 12 4 9 9 -3 4 -7 8 -9 8 -2 0 -6 -4
-9 -8z"/>
<path d="M53 3813 c0 -9 4 -10 14 -2 7 6 13 12 13 14 0 1 -6 2 -13 2 -8 0 -14
-6 -14 -14z"/>
<path d="M248 3823 c7 -3 16 -2 19 1 4 3 -2 6 -13 5 -11 0 -14 -3 -6 -6z"/>
<path d="M16 3808 c3 -5 10 -6 15 -3 13 9 11 12 -6 12 -8 0 -12 -4 -9 -9z"/>
<path d="M210 3809 c0 -5 5 -7 10 -4 6 3 10 8 10 11 0 2 -4 4 -10 4 -5 0 -10
-5 -10 -11z"/>
<path d="M4495 3801 c-3 -5 -2 -12 3 -15 5 -3 9 1 9 9 0 17 -3 19 -12 6z"/>
<path d="M74 3784 c1 -7 6 -17 11 -21 4 -4 5 -3 1 4 -3 7 1 13 11 15 15 3 15
5 -3 10 -15 4 -21 1 -20 -8z"/>
<path d="M4587 3779 c4 -13 8 -18 11 -10 2 7 -1 18 -6 23 -8 8 -9 4 -5 -13z"/>
<path d="M190 3781 c0 -6 4 -13 10 -16 6 -3 7 1 4 9 -7 18 -14 21 -14 7z"/>
<path d="M402 3766 c7 -8 15 -12 17 -11 5 6 -10 25 -20 25 -5 0 -4 -6 3 -14z"/>
<path d="M805 3740 c-4 -23 -5 -43 -2 -46 2 -3 7 14 11 37 4 23 5 44 2 46 -2
2 -7 -14 -11 -37z"/>
<path d="M450 3751 c0 -6 4 -13 10 -16 6 -3 7 1 4 9 -7 18 -14 21 -14 7z"/>
<path d="M916 3735 c-9 -26 -7 -32 5 -12 6 10 9 21 6 23 -2 3 -7 -2 -11 -11z"/>
<path d="M120 3725 c0 -5 5 -17 10 -25 5 -8 10 -10 10 -5 0 6 -5 17 -10 25 -5
8 -10 11 -10 5z"/>
<path d="M4550 3720 c0 -5 7 -7 15 -4 8 4 15 8 15 10 0 2 -7 4 -15 4 -8 0 -15
-4 -15 -10z"/>
<path d="M157 3713 c-10 -9 -9 -23 1 -23 5 0 9 7 9 15 0 17 -1 18 -10 8z"/>
<path d="M330 3710 c-9 -6 -10 -10 -3 -10 6 0 15 5 18 10 8 12 4 12 -15 0z"/>
<path d="M1150 3668 c-11 -18 -20 -36 -20 -40 0 -4 -13 -29 -29 -56 -15 -26
-34 -65 -40 -85 -7 -20 -17 -37 -23 -37 -6 0 -9 -3 -6 -6 6 -5 -58 -144 -71
-154 -3 -3 -19 -32 -36 -65 -16 -33 -35 -66 -42 -72 -6 -7 -14 -22 -18 -32 -3
-11 -12 -22 -20 -25 -12 -4 -15 7 -15 62 0 47 -3 63 -10 52 -8 -13 -10 -12
-10 3 0 9 5 17 11 17 8 0 8 4 1 13 -5 6 -9 28 -7 47 4 33 3 34 -8 10 -6 -14
-16 -28 -22 -32 -6 -5 -6 -8 2 -8 6 0 10 -13 9 -31 -1 -17 4 -42 11 -56 7 -14
13 -40 13 -57 0 -34 -20 -86 -33 -86 -5 0 -5 -4 -2 -10 3 -5 -1 -10 -9 -10 -9
0 -16 -4 -16 -8 0 -25 -94 -92 -170 -122 -19 -7 -39 -17 -44 -21 -5 -5 -15 -4
-21 1 -8 7 -12 5 -12 -4 0 -8 9 -17 19 -19 10 -3 18 -1 18 5 0 6 11 8 25 6 15
-3 22 -1 18 5 -4 6 2 8 15 5 12 -4 20 -3 18 1 -3 4 33 27 80 51 87 45 133 80
84 65 l-25 -8 20 24 c11 13 25 28 31 34 6 5 33 44 59 85 27 41 53 78 58 81 5
3 8 9 7 13 -2 11 123 255 129 251 4 -1 6 12 7 29 0 19 10 43 22 56 12 13 22
28 22 33 0 5 13 36 30 68 32 64 32 79 0 27z"/>
<path d="M440 3671 c0 -6 4 -13 10 -16 6 -3 7 1 4 9 -7 18 -14 21 -14 7z"/>
<path d="M760 3669 c0 -5 5 -7 10 -4 6 3 10 8 10 11 0 2 -4 4 -10 4 -5 0 -10
-5 -10 -11z"/>
<path d="M270 3660 c-9 -6 -10 -10 -3 -10 6 0 15 5 18 10 8 12 4 12 -15 0z"/>
<path d="M296 3643 c-6 -14 -5 -15 5 -6 7 7 10 15 7 18 -3 3 -9 -2 -12 -12z"/>
<path d="M4534 3653 c10 -11 37 -12 30 -2 -3 5 -12 9 -21 9 -9 0 -13 -3 -9 -7z"/>
<path d="M4589 3628 c4 -28 6 -29 9 -9 2 13 0 27 -5 32 -6 6 -7 -3 -4 -23z"/>
<path d="M546 3633 c-6 -14 -5 -15 5 -6 7 7 10 15 7 18 -3 3 -9 -2 -12 -12z"/>
<path d="M787 3583 c-8 -84 -9 -158 -2 -151 7 6 17 218 12 218 -2 0 -7 -30
-10 -67z"/>
<path d="M872 3613 c-5 -15 -16 -50 -23 -78 -6 -27 -17 -57 -23 -65 -9 -13 -8
-13 5 0 9 8 25 48 37 89 22 74 24 107 4 54z"/>
<path d="M300 3605 c0 -8 2 -15 4 -15 2 0 6 7 10 15 3 8 1 15 -4 15 -6 0 -10
-7 -10 -15z"/>
<path d="M120 3602 c0 -5 7 -9 15 -9 8 0 12 4 9 9 -3 4 -9 8 -15 8 -5 0 -9 -4
-9 -8z"/>
<path d="M713 3595 c0 -7 6 -11 14 -8 7 3 13 6 13 8 0 2 -6 5 -13 8 -8 3 -14
-1 -14 -8z"/>
<path d="M20 3596 c0 -2 7 -7 16 -10 8 -3 12 -2 9 4 -6 10 -25 14 -25 6z"/>
<path d="M85 3589 c-4 -6 -5 -12 -2 -15 2 -3 7 2 10 11 7 17 1 20 -8 4z"/>
<path d="M456 3587 c3 -10 9 -15 12 -12 3 3 0 11 -7 18 -10 9 -11 8 -5 -6z"/>
<path d="M335 3569 c-3 -4 2 -6 10 -5 21 3 28 13 10 13 -9 0 -18 -4 -20 -8z"/>
<path d="M136 3558 c3 -5 10 -6 15 -3 13 9 11 12 -6 12 -8 0 -12 -4 -9 -9z"/>
<path d="M190 3566 c0 -2 7 -7 16 -10 8 -3 12 -2 9 4 -6 10 -25 14 -25 6z"/>
<path d="M90 3556 c0 -2 8 -10 18 -17 15 -13 16 -12 3 4 -13 16 -21 21 -21 13z"/>
<path d="M4446 3552 c-3 -5 1 -9 9 -9 8 0 12 4 9 9 -3 4 -7 8 -9 8 -2 0 -6 -4
-9 -8z"/>
<path d="M4585 3550 c-3 -5 -1 -10 4 -10 6 0 11 5 11 10 0 6 -2 10 -4 10 -3 0
-8 -4 -11 -10z"/>
<path d="M4585 3490 c-3 -5 -1 -10 4 -10 6 0 11 5 11 10 0 6 -2 10 -4 10 -3 0
-8 -4 -11 -10z"/>
<path d="M140 3485 c0 -2 6 -8 13 -14 10 -8 14 -7 14 2 0 8 -6 14 -14 14 -7 0
-13 -1 -13 -2z"/>
<path d="M745 3460 c3 -5 8 -10 11 -10 2 0 4 5 4 10 0 6 -5 10 -11 10 -5 0 -7
-4 -4 -10z"/>
<path d="M4591 3454 c0 -11 3 -14 6 -6 3 7 2 16 -1 19 -3 4 -6 -2 -5 -13z"/>
<path d="M756 3432 c-2 -4 -1 -14 5 -22 7 -12 9 -10 9 8 0 23 -5 28 -14 14z"/>
<path d="M810 3430 c-9 -6 -10 -10 -3 -10 6 0 15 5 18 10 8 12 4 12 -15 0z"/>
<path d="M246 3411 c-3 -5 1 -11 9 -14 9 -4 12 -1 8 9 -6 16 -10 17 -17 5z"/>
<path d="M316 3412 c-3 -5 1 -9 9 -9 8 0 12 4 9 9 -3 4 -7 8 -9 8 -2 0 -6 -4
-9 -8z"/>
<path d="M4410 3416 c0 -2 8 -10 18 -17 15 -13 16 -12 3 4 -13 16 -21 21 -21
13z"/>
<path d="M4580 3409 c0 -5 5 -7 10 -4 6 3 10 8 10 11 0 2 -4 4 -10 4 -5 0 -10
-5 -10 -11z"/>
<path d="M783 3377 c-2 -30 -2 -31 8 -8 5 14 6 28 1 33 -4 4 -9 -7 -9 -25z"/>
<path d="M705 3390 c3 -5 8 -10 11 -10 2 0 4 5 4 10 0 6 -5 10 -11 10 -5 0 -7
-4 -4 -10z"/>
<path d="M4570 3380 c-8 -5 -10 -10 -5 -10 6 0 17 5 25 10 8 5 11 10 5 10 -5
0 -17 -5 -25 -10z"/>
<path d="M259 3343 c-13 -16 -12 -17 4 -4 9 7 17 15 17 17 0 8 -8 3 -21 -13z"/>
<path d="M452 3341 c-11 -7 -11 -9 0 -14 9 -3 15 1 15 9 0 8 -1 14 -1 14 -1 0
-7 -4 -14 -9z"/>
<path d="M698 3343 c7 -3 16 -2 19 1 4 3 -2 6 -13 5 -11 0 -14 -3 -6 -6z"/>
<path d="M220 3331 c0 -5 7 -12 16 -15 14 -5 15 -4 4 9 -14 17 -20 19 -20 6z"/>
<path d="M79 3313 c-13 -16 -12 -17 4 -4 16 13 21 21 13 21 -2 0 -10 -8 -17
-17z"/>
<path d="M443 3305 c0 -8 4 -12 9 -9 5 3 6 10 3 15 -9 13 -12 11 -12 -6z"/>
<path d="M4475 3311 c-3 -5 -2 -12 3 -15 5 -3 9 1 9 9 0 17 -3 19 -12 6z"/>
<path d="M175 3300 c-3 -5 -1 -10 4 -10 6 0 11 5 11 10 0 6 -2 10 -4 10 -3 0
-8 -4 -11 -10z"/>
<path d="M365 3299 c-4 -6 -5 -12 -2 -15 2 -3 7 2 10 11 7 17 1 20 -8 4z"/>
<path d="M4580 3303 c0 -5 5 -15 10 -23 8 -12 10 -11 10 8 0 12 -4 22 -10 22
-5 0 -10 -3 -10 -7z"/>
<path d="M5 3270 c2 -27 10 -33 12 -10 1 11 -2 22 -6 24 -4 3 -7 -4 -6 -14z"/>
<path d="M146 3253 c-6 -14 -5 -15 5 -6 7 7 10 15 7 18 -3 3 -9 -2 -12 -12z"/>
<path d="M565 3250 c-4 -6 -10 -8 -15 -5 -5 3 -11 1 -14 -4 -8 -13 22 -7 36 7
7 7 9 12 6 12 -4 0 -10 -5 -13 -10z"/>
<path d="M725 3250 c4 -6 11 -8 16 -5 14 9 11 15 -7 15 -8 0 -12 -5 -9 -10z"/>
<path d="M4589 3258 c-5 -17 -4 -48 3 -48 4 0 8 11 8 25 0 20 -7 34 -11 23z"/>
<path d="M623 3225 c0 -8 4 -12 9 -9 5 3 6 10 3 15 -9 13 -12 11 -12 -6z"/>
<path d="M36 3205 c-9 -26 -7 -32 5 -12 6 10 9 21 6 23 -2 3 -7 -2 -11 -11z"/>
<path d="M420 3190 c-8 -5 -12 -11 -10 -14 3 -2 14 2 24 10 22 15 10 19 -14 4z"/>
<path d="M67 3163 c-3 -5 5 -8 18 -8 13 0 21 3 18 8 -2 4 -10 7 -18 7 -8 0
-16 -3 -18 -7z"/>
<path d="M736 3155 c-9 -26 -7 -32 5 -12 6 10 9 21 6 23 -2 3 -7 -2 -11 -11z"/>
<path d="M4576 3163 c5 -5 12 -12 16 -18 4 -6 8 -2 8 8 0 9 -7 17 -17 17 -9 0
-12 -3 -7 -7z"/>
<path d="M356 3142 c-3 -5 1 -9 9 -9 8 0 12 4 9 9 -3 4 -7 8 -9 8 -2 0 -6 -4
-9 -8z"/>
<path d="M4485 3139 c-4 -6 -5 -12 -2 -15 2 -3 7 2 10 11 7 17 1 20 -8 4z"/>
<path d="M48 3133 c7 -3 16 -2 19 1 4 3 -2 6 -13 5 -11 0 -14 -3 -6 -6z"/>
<path d="M903 3111 c0 -11 5 -18 9 -15 4 3 5 11 1 19 -7 21 -12 19 -10 -4z"/>
<path d="M168 3113 c6 -3 10 -9 6 -14 -8 -14 2 -11 14 4 8 10 6 13 -11 14 -12
0 -16 -1 -9 -4z"/>
<path d="M720 3106 c0 -8 4 -17 9 -20 5 -4 7 3 4 14 -6 23 -13 26 -13 6z"/>
<path d="M4580 3110 c0 -5 5 -10 10 -10 6 0 10 5 10 10 0 6 -4 10 -10 10 -5 0
-10 -4 -10 -10z"/>
<path d="M74 3093 c2 -10 6 -17 10 -16 15 3 16 11 2 22 -12 10 -14 9 -12 -6z"/>
<path d="M4520 3106 c0 -2 8 -10 18 -17 15 -13 16 -12 3 4 -13 16 -21 21 -21
13z"/>
<path d="M436 3083 c-6 -14 -5 -15 5 -6 7 7 10 15 7 18 -3 3 -9 -2 -12 -12z"/>
<path d="M1026 3092 c-3 -6 1 -13 10 -16 23 -9 28 -2 10 13 -8 7 -17 8 -20 3z"/>
<path d="M33 3065 c0 -8 4 -12 9 -9 5 3 6 10 3 15 -9 13 -12 11 -12 -6z"/>
<path d="M1023 3063 c4 -3 1 -13 -6 -22 -10 -14 -10 -14 4 -4 9 7 20 9 25 5 4
-4 2 1 -5 11 -7 9 -16 17 -19 17 -3 0 -2 -3 1 -7z"/>
<path d="M260 3055 c0 -5 5 -17 10 -25 5 -8 10 -10 10 -5 0 6 -5 17 -10 25 -5
8 -10 11 -10 5z"/>
<path d="M4578 3053 c7 -3 16 -2 19 1 4 3 -2 6 -13 5 -11 0 -14 -3 -6 -6z"/>
<path d="M696 3032 c-2 -4 -1 -14 5 -22 7 -12 9 -10 9 8 0 23 -5 28 -14 14z"/>
<path d="M33 2979 c24 -18 26 -24 15 -38 -12 -14 -11 -15 5 -2 20 15 10 34
-27 52 -13 6 -10 2 7 -12z"/>
<path d="M927 2994 c-3 -4 -3 -20 0 -37 5 -23 3 -28 -7 -22 -9 6 -11 4 -5 -4
10 -17 26 0 29 33 3 26 -6 41 -17 30z"/>
<path d="M4535 2970 c3 -5 8 -10 11 -10 2 0 4 5 4 10 0 6 -5 10 -11 10 -5 0
-7 -4 -4 -10z"/>
<path d="M5 2950 c-3 -6 1 -7 9 -4 18 7 21 14 7 14 -6 0 -13 -4 -16 -10z"/>
<path d="M4580 2940 c-13 -8 -12 -10 3 -10 9 0 17 5 17 10 0 12 -1 12 -20 0z"/>
<path d="M4480 2930 c-9 -6 -10 -10 -3 -10 6 0 15 5 18 10 8 12 4 12 -15 0z"/>
<path d="M10 2920 c-9 -6 -10 -10 -3 -10 6 0 15 5 18 10 8 12 4 12 -15 0z"/>
<path d="M380 2920 c-8 -5 -10 -10 -5 -10 6 0 17 5 25 10 8 5 11 10 5 10 -5 0
-17 -5 -25 -10z"/>
<path d="M947 2923 c-10 -10 -8 -33 2 -33 6 0 9 9 8 20 -1 23 -1 22 -10 13z"/>
<path d="M4580 2900 c0 -11 4 -20 9 -20 5 0 7 9 4 20 -3 11 -7 20 -9 20 -2 0
-4 -9 -4 -20z"/>
<path d="M325 2890 c-4 -6 -2 -17 4 -24 6 -7 7 -17 3 -21 -4 -5 -1 -5 6 -1 10
6 10 11 2 21 -7 8 -9 19 -5 25 3 5 4 10 1 10 -3 0 -8 -5 -11 -10z"/>
<path d="M730 2889 c0 -5 5 -7 10 -4 6 3 10 8 10 11 0 2 -4 4 -10 4 -5 0 -10
-5 -10 -11z"/>
<path d="M190 2880 c8 -5 20 -10 25 -10 6 0 3 5 -5 10 -8 5 -19 10 -25 10 -5
0 -3 -5 5 -10z"/>
<path d="M350 2876 c0 -2 9 -6 20 -9 11 -3 18 -1 14 4 -5 9 -34 13 -34 5z"/>
<path d="M4588 2865 c-4 -4 -4 -14 -1 -23 5 -11 3 -13 -7 -7 -9 6 -11 4 -5 -4
10 -17 28 1 23 24 -1 9 -6 14 -10 10z"/>
<path d="M181 2846 c-9 -10 -9 -16 -1 -21 6 -4 14 -4 17 -1 4 3 1 6 -7 6 -10
0 -10 3 0 15 7 8 10 15 7 15 -2 0 -10 -6 -16 -14z"/>
<path d="M210 2851 c0 -6 4 -13 10 -16 6 -3 7 1 4 9 -7 18 -14 21 -14 7z"/>
<path d="M277 2839 c7 -7 15 -10 18 -7 3 3 -2 9 -12 12 -14 6 -15 5 -6 -5z"/>
<path d="M356 2827 c3 -10 9 -15 12 -12 3 3 0 11 -7 18 -10 9 -11 8 -5 -6z"/>
<path d="M150 2800 c-9 -6 -10 -10 -3 -10 6 0 15 5 18 10 8 12 4 12 -15 0z"/>
<path d="M4585 2770 c-3 -5 -1 -10 4 -10 6 0 11 5 11 10 0 6 -2 10 -4 10 -3 0
-8 -4 -11 -10z"/>
<path d="M145 2759 c-4 -6 -5 -12 -2 -15 2 -3 7 2 10 11 7 17 1 20 -8 4z"/>
<path d="M347 2749 c7 -7 15 -10 18 -7 3 3 -2 9 -12 12 -14 6 -15 5 -6 -5z"/>
<path d="M877 2729 c7 -7 15 -10 18 -7 3 3 -2 9 -12 12 -14 6 -15 5 -6 -5z"/>
<path d="M4409 2713 c-13 -16 -12 -17 4 -4 16 13 21 21 13 21 -2 0 -10 -8 -17
-17z"/>
<path d="M386 2702 c-3 -5 1 -9 9 -9 8 0 12 4 9 9 -3 4 -7 8 -9 8 -2 0 -6 -4
-9 -8z"/>
<path d="M745 2700 c-3 -6 1 -7 9 -4 18 7 21 14 7 14 -6 0 -13 -4 -16 -10z"/>
<path d="M686 2683 c-6 -14 -5 -15 5 -6 7 7 10 15 7 18 -3 3 -9 -2 -12 -12z"/>
<path d="M313 2665 c0 -8 4 -12 9 -9 4 3 8 9 8 15 0 5 -4 9 -8 9 -5 0 -9 -7
-9 -15z"/>
<path d="M355 2669 c-4 -6 -5 -12 -2 -15 2 -3 7 2 10 11 7 17 1 20 -8 4z"/>
<path d="M1175 2670 c-11 -5 -17 -9 -13 -9 3 -1 13 -3 21 -6 8 -4 14 0 14 10
0 8 -1 15 -1 14 -1 0 -10 -4 -21 -9z"/>
<path d="M4580 2670 c0 -5 5 -10 10 -10 6 0 10 5 10 10 0 6 -4 10 -10 10 -5 0
-10 -4 -10 -10z"/>
<path d="M118 2653 c7 -3 16 -2 19 1 4 3 -2 6 -13 5 -11 0 -14 -3 -6 -6z"/>
<path d="M217 2643 c3 -7 6 -13 8 -13 2 0 5 6 8 13 3 8 -1 14 -8 14 -7 0 -11
-6 -8 -14z"/>
<path d="M596 2648 c3 -5 10 -6 15 -3 13 9 11 12 -6 12 -8 0 -12 -4 -9 -9z"/>
<path d="M1160 2645 c0 -2 -9 -27 -20 -55 -11 -27 -16 -50 -11 -50 5 0 14 15
21 33 15 41 22 77 15 77 -3 0 -5 -2 -5 -5z"/>
<path d="M4587 2643 c-4 -3 -7 -11 -7 -17 0 -6 5 -5 12 2 6 6 9 14 7 17 -3 3
-9 2 -12 -2z"/>
<path d="M140 2631 c0 -7 -5 -9 -12 -5 -7 5 -8 3 -3 -5 5 -9 10 -10 18 -2 6 6
8 14 4 18 -4 3 -7 1 -7 -6z"/>
<path d="M844 2626 c1 -8 5 -18 8 -22 4 -3 5 1 4 10 -1 8 -5 18 -8 22 -4 3 -5
-1 -4 -10z"/>
<path d="M886 2625 c-11 -8 -15 -15 -9 -15 6 0 16 7 23 15 16 19 11 19 -14 0z"/>
<path d="M635 2611 c-3 -5 -2 -12 3 -15 5 -3 9 1 9 9 0 17 -3 19 -12 6z"/>
<path d="M100 2590 c0 -5 5 -10 11 -10 5 0 7 5 4 10 -3 6 -8 10 -11 10 -2 0
-4 -4 -4 -10z"/>
<path d="M272 2576 c7 -8 15 -12 17 -11 5 6 -10 25 -20 25 -5 0 -4 -6 3 -14z"/>
<path d="M575 2580 c3 -5 8 -10 11 -10 2 0 4 5 4 10 0 6 -5 10 -11 10 -5 0 -7
-4 -4 -10z"/>
<path d="M1182 2560 c0 -14 2 -19 5 -12 2 6 2 18 0 25 -3 6 -5 1 -5 -13z"/>
<path d="M492 2551 c7 -9 13 -18 15 -20 1 -2 1 5 0 16 0 11 -7 20 -14 20 -10
0 -10 -4 -1 -16z"/>
<path d="M4483 2563 c4 -6 2 -13 -5 -15 -8 -3 -6 -6 4 -10 17 -7 19 15 3 29
-4 4 -5 3 -2 -4z"/>
<path d="M31 2544 c0 -11 3 -14 6 -6 3 7 2 16 -1 19 -3 4 -6 -2 -5 -13z"/>
<path d="M7 2530 c-3 -11 -2 -22 2 -24 4 -3 8 6 9 20 2 29 -4 31 -11 4z"/>
<path d="M125 2540 c-3 -6 1 -7 9 -4 18 7 21 14 7 14 -6 0 -13 -4 -16 -10z"/>
<path d="M46 2524 c-5 -14 -4 -15 9 -4 17 14 19 20 6 20 -5 0 -12 -7 -15 -16z"/>
<path d="M4580 2531 c0 -6 4 -13 10 -16 6 -3 7 1 4 9 -7 18 -14 21 -14 7z"/>
<path d="M336 2512 c-3 -5 1 -9 9 -9 8 0 12 4 9 9 -3 4 -7 8 -9 8 -2 0 -6 -4
-9 -8z"/>
<path d="M490 2486 c0 -8 4 -17 9 -20 5 -4 7 3 4 14 -6 23 -13 26 -13 6z"/>
<path d="M4592 2475 c0 -16 2 -22 5 -12 2 9 2 23 0 30 -3 6 -5 -1 -5 -18z"/>
<path d="M76 2477 c3 -10 9 -15 12 -12 3 3 0 11 -7 18 -10 9 -11 8 -5 -6z"/>
<path d="M918 2473 c7 -3 16 -2 19 1 4 3 -2 6 -13 5 -11 0 -14 -3 -6 -6z"/>
<path d="M340 2455 c-8 -9 -8 -15 0 -20 6 -4 9 -1 8 7 -2 8 4 12 15 10 21 -3
23 4 3 11 -8 3 -20 0 -26 -8z"/>
<path d="M949 2443 c-13 -16 -12 -17 4 -4 9 7 17 15 17 17 0 8 -8 3 -21 -13z"/>
<path d="M835 2429 c-11 -16 -1 -19 13 -3 7 8 8 14 3 14 -5 0 -13 -5 -16 -11z"/>
<path d="M316 2417 c3 -10 9 -15 12 -12 3 3 0 11 -7 18 -10 9 -11 8 -5 -6z"/>
<path d="M4586 2405 c4 -8 8 -15 10 -15 2 0 4 7 4 15 0 8 -4 15 -10 15 -5 0
-7 -7 -4 -15z"/>
<path d="M41 2394 c-1 -6 6 -17 14 -24 9 -7 14 -19 11 -26 -3 -7 0 -16 7 -20
7 -4 9 -4 5 1 -4 4 -3 14 2 20 8 9 6 14 -5 19 -9 3 -13 11 -9 17 4 7 3 9 -4 5
-5 -3 -13 0 -15 6 -4 8 -6 9 -6 2z"/>
<path d="M4578 2373 c7 -3 16 -2 19 1 4 3 -2 6 -13 5 -11 0 -14 -3 -6 -6z"/>
<path d="M354 2349 c-3 -6 -2 -15 3 -20 5 -5 9 -1 9 11 0 23 -2 24 -12 9z"/>
<path d="M4380 2356 c0 -2 8 -10 18 -17 15 -13 16 -12 3 4 -13 16 -21 21 -21
13z"/>
<path d="M4580 2335 c5 -6 8 -21 5 -33 -2 -12 0 -24 5 -27 5 -3 8 12 7 33 -1
24 -6 39 -14 39 -8 0 -9 -4 -3 -12z"/>
<path d="M596 2325 c-3 -8 -1 -15 4 -15 6 0 10 7 10 15 0 8 -2 15 -4 15 -2 0
-6 -7 -10 -15z"/>
<path d="M795 2319 c-4 -6 -5 -12 -2 -15 2 -3 7 2 10 11 7 17 1 20 -8 4z"/>
<path d="M101 2303 c-1 -17 16 -25 25 -12 4 7 3 9 -4 5 -5 -3 -13 0 -15 6 -4
9 -6 10 -6 1z"/>
<path d="M313 2300 c2 -8 12 -16 23 -17 13 -2 15 -1 4 4 -8 3 -19 11 -23 17
-6 7 -7 6 -4 -4z"/>
<path d="M315 2260 c-3 -6 1 -7 9 -4 18 7 21 14 7 14 -6 0 -13 -4 -16 -10z"/>
<path d="M265 2250 c-3 -5 -1 -10 4 -10 6 0 11 5 11 10 0 6 -2 10 -4 10 -3 0
-8 -4 -11 -10z"/>
<path d="M4585 2250 c-3 -5 -1 -10 4 -10 6 0 11 5 11 10 0 6 -2 10 -4 10 -3 0
-8 -4 -11 -10z"/>
<path d="M806 2242 c-3 -5 1 -9 9 -9 8 0 12 4 9 9 -3 4 -7 8 -9 8 -2 0 -6 -4
-9 -8z"/>
<path d="M730 2236 c0 -2 9 -6 20 -9 11 -3 18 -1 14 4 -5 9 -34 13 -34 5z"/>
<path d="M4585 2221 c-3 -5 -1 -12 5 -16 5 -3 10 1 10 9 0 18 -6 21 -15 7z"/>
<path d="M583 2195 c0 -8 4 -12 9 -9 5 3 6 10 3 15 -9 13 -12 11 -12 -6z"/>
<path d="M855 2199 c-4 -6 -5 -12 -2 -15 2 -3 7 2 10 11 7 17 1 20 -8 4z"/>
<path d="M1522 2158 c-1 -32 2 -58 7 -58 4 0 6 11 3 25 -2 14 1 32 8 40 8 9 8
15 2 15 -6 0 -12 8 -14 18 -2 9 -5 -9 -6 -40z"/>
<path d="M76 2192 c-3 -5 1 -9 9 -9 8 0 12 4 9 9 -3 4 -7 8 -9 8 -2 0 -6 -4
-9 -8z"/>
<path d="M256 2192 c-3 -5 1 -9 9 -9 8 0 12 4 9 9 -3 4 -7 8 -9 8 -2 0 -6 -4
-9 -8z"/>
<path d="M355 2179 c-3 -4 2 -6 10 -5 21 3 28 13 10 13 -9 0 -18 -4 -20 -8z"/>
<path d="M995 2181 c-3 -5 -2 -12 3 -15 5 -3 9 1 9 9 0 17 -3 19 -12 6z"/>
<path d="M926 2172 c-3 -5 1 -9 9 -9 8 0 12 4 9 9 -3 4 -7 8 -9 8 -2 0 -6 -4
-9 -8z"/>
<path d="M4587 2173 c-3 -5 -1 -17 4 -28 7 -17 8 -17 8 8 1 27 -4 34 -12 20z"/>
<path d="M645 2161 c-6 -11 13 -26 22 -17 4 3 1 6 -6 6 -7 0 -9 5 -6 10 3 6 4
10 1 10 -3 0 -7 -4 -11 -9z"/>
<path d="M234 2142 c3 -5 0 -13 -6 -15 -9 -4 -10 -6 -1 -6 17 -1 25 16 12 25
-7 4 -9 3 -5 -4z"/>
<path d="M366 2142 c-2 -4 -1 -14 4 -22 7 -11 9 -9 7 8 -1 24 -3 26 -11 14z"/>
<path d="M266 2124 c-3 -7 3 -15 12 -19 9 -3 13 -3 9 1 -4 4 -2 12 3 19 7 8 5
12 -5 12 -8 0 -16 -6 -19 -13z"/>
<path d="M4411 2104 c0 -11 3 -14 6 -6 3 7 2 16 -1 19 -3 4 -6 -2 -5 -13z"/>
<path d="M630 2101 c0 -6 4 -13 10 -16 6 -3 7 1 4 9 -7 18 -14 21 -14 7z"/>
<path d="M4586 2085 c4 -8 8 -15 10 -15 2 0 4 7 4 15 0 8 -4 15 -10 15 -5 0
-7 -7 -4 -15z"/>
<path d="M276 2082 c-2 -4 -1 -14 4 -22 7 -11 9 -9 7 8 -1 24 -3 26 -11 14z"/>
<path d="M433 2074 c0 -9 4 -11 12 -4 7 5 14 9 16 7 2 -1 3 0 1 2 -7 11 -29 7
-29 -5z"/>
<path d="M20 2070 c0 -5 5 -10 11 -10 5 0 7 5 4 10 -3 6 -8 10 -11 10 -2 0 -4
-4 -4 -10z"/>
<path d="M161 2064 c0 -11 3 -14 6 -6 3 7 2 16 -1 19 -3 4 -6 -2 -5 -13z"/>
<path d="M597 2067 c-3 -8 -2 -20 3 -26 5 -9 8 -4 8 13 0 29 -3 32 -11 13z"/>
<path d="M7 2049 c7 -7 15 -10 18 -7 3 3 -2 9 -12 12 -14 6 -15 5 -6 -5z"/>
<path d="M4585 2051 c-3 -5 -2 -12 3 -15 5 -3 9 1 9 9 0 17 -3 19 -12 6z"/>
<path d="M3827 2023 c3 -7 6 -13 8 -13 2 0 5 6 8 13 3 8 -1 14 -8 14 -7 0 -11
-6 -8 -14z"/>
<path d="M4326 2008 c3 -5 10 -6 15 -3 13 9 11 12 -6 12 -8 0 -12 -4 -9 -9z"/>
<path d="M274 1999 c-3 -6 -2 -15 3 -20 5 -5 9 -1 9 11 0 23 -2 24 -12 9z"/>
<path d="M4582 1990 c-10 -16 -10 -20 0 -20 9 0 8 -4 -2 -11 -13 -9 -13 -10 0
-6 8 2 16 16 17 30 2 32 1 33 -15 7z"/>
<path d="M621 1974 c0 -11 3 -14 6 -6 3 7 2 16 -1 19 -3 4 -6 -2 -5 -13z"/>
<path d="M36 1962 c-3 -5 1 -9 9 -9 8 0 15 4 15 9 0 4 -4 8 -9 8 -6 0 -12 -4
-15 -8z"/>
<path d="M3835 1959 c-4 -6 -5 -12 -2 -15 2 -3 7 2 10 11 7 17 1 20 -8 4z"/>
<path d="M106 1952 c-3 -5 1 -9 9 -9 8 0 15 4 15 9 0 4 -4 8 -9 8 -6 0 -12 -4
-15 -8z"/>
<path d="M131 1927 c-13 -21 -12 -21 5 -5 10 10 16 20 13 22 -3 3 -11 -5 -18
-17z"/>
<path d="M160 1936 c0 -2 7 -7 16 -10 8 -3 12 -2 9 4 -6 10 -25 14 -25 6z"/>
<path d="M3906 1923 c-6 -14 -5 -15 5 -6 7 7 10 15 7 18 -3 3 -9 -2 -12 -12z"/>
<path d="M1078 1923 c7 -3 16 -2 19 1 4 3 -2 6 -13 5 -11 0 -14 -3 -6 -6z"/>
<path d="M4150 1920 c-9 -6 -10 -10 -3 -10 6 0 15 5 18 10 8 12 4 12 -15 0z"/>
<path d="M4587 1910 c-3 -11 -1 -20 4 -20 5 0 9 9 9 20 0 11 -2 20 -4 20 -2 0
-6 -9 -9 -20z"/>
<path d="M3705 1910 c-3 -5 -1 -10 4 -10 6 0 11 5 11 10 0 6 -2 10 -4 10 -3 0
-8 -4 -11 -10z"/>
<path d="M4493 1908 c-11 -19 -13 -39 -1 -32 5 3 7 9 4 12 -3 3 -1 11 5 19 6
7 9 13 6 13 -3 0 -9 -6 -14 -12z"/>
<path d="M4530 1916 c0 -2 8 -10 18 -17 15 -13 16 -12 3 4 -13 16 -21 21 -21
13z"/>
<path d="M1634 1888 c-4 -6 -3 -8 3 -5 6 4 13 -2 16 -13 3 -11 11 -20 19 -19
10 0 10 2 1 6 -7 2 -13 13 -13 24 0 21 -15 25 -26 7z"/>
<path d="M4011 1883 c-1 -17 16 -25 25 -12 4 7 3 9 -4 5 -5 -3 -13 0 -15 6 -4
9 -6 10 -6 1z"/>
<path d="M4097 1876 c-3 -8 1 -22 9 -33 14 -17 15 -17 6 2 -5 11 -7 26 -5 33
6 17 -4 15 -10 -2z"/>
<path d="M265 1870 c3 -5 8 -10 11 -10 2 0 4 5 4 10 0 6 -5 10 -11 10 -5 0 -7
-4 -4 -10z"/>
<path d="M4175 1869 c-4 -6 -5 -12 -2 -15 2 -3 7 2 10 11 7 17 1 20 -8 4z"/>
<path d="M4583 1865 c-7 -8 -9 -16 -4 -19 5 -3 12 1 15 10 8 22 4 25 -11 9z"/>
<path d="M4326 1858 c3 -5 10 -6 15 -3 13 9 11 12 -6 12 -8 0 -12 -4 -9 -9z"/>
<path d="M370 1850 c0 -5 5 -10 11 -10 5 0 7 5 4 10 -3 6 -8 10 -11 10 -2 0
-4 -4 -4 -10z"/>
<path d="M3707 1847 c-3 -8 1 -14 8 -14 7 0 11 6 8 14 -3 7 -6 13 -8 13 -2 0
-5 -6 -8 -13z"/>
<path d="M3956 1852 c-3 -5 1 -9 9 -9 8 0 12 4 9 9 -3 4 -7 8 -9 8 -2 0 -6 -4
-9 -8z"/>
<path d="M169 1833 c-13 -16 -12 -17 4 -4 9 7 17 15 17 17 0 8 -8 3 -21 -13z"/>
<path d="M1074 1813 c2 -9 8 -18 15 -19 6 -1 7 0 1 3 -5 2 -8 9 -5 13 3 5 1
11 -4 14 -5 4 -8 -2 -7 -11z"/>
<path d="M4316 1818 c3 -5 9 -7 12 -4 3 3 12 0 21 -6 13 -10 14 -10 4 2 -15
16 -46 23 -37 8z"/>
<path d="M661 1807 c-8 -10 -7 -14 2 -14 8 0 14 6 14 14 0 7 -1 13 -2 13 -2 0
-8 -6 -14 -13z"/>
<path d="M4433 1805 c0 -8 4 -12 9 -9 5 3 6 10 3 15 -9 13 -12 11 -12 -6z"/>
<path d="M480 1798 c-12 -8 -12 -9 2 -5 9 3 19 1 22 -6 3 -9 5 -9 5 0 1 18
-13 23 -29 11z"/>
<path d="M3789 1783 c-13 -16 -12 -17 4 -4 9 7 17 15 17 17 0 8 -8 3 -21 -13z"/>
<path d="M355 1780 c-3 -5 -1 -10 4 -10 6 0 11 5 11 10 0 6 -2 10 -4 10 -3 0
-8 -4 -11 -10z"/>
<path d="M60 1770 c0 -7 -3 -10 -7 -7 -8 9 -33 -12 -33 -27 0 -6 5 -3 11 7 6
9 14 15 19 12 10 -6 25 14 16 22 -3 4 -6 0 -6 -7z"/>
<path d="M4286 1772 c-2 -4 4 -8 14 -8 10 0 16 4 14 8 -3 4 -9 8 -14 8 -5 0
-11 -4 -14 -8z"/>
<path d="M4426 1768 c3 -5 10 -6 15 -3 13 9 11 12 -6 12 -8 0 -12 -4 -9 -9z"/>
<path d="M4580 1760 c0 -11 5 -20 10 -20 6 0 10 9 10 20 0 11 -4 20 -10 20 -5
0 -10 -9 -10 -20z"/>
<path d="M498 1763 c7 -3 16 -2 19 1 4 3 -2 6 -13 5 -11 0 -14 -3 -6 -6z"/>
<path d="M100 1756 c0 -2 8 -10 18 -17 15 -13 16 -12 3 4 -13 16 -21 21 -21
13z"/>
<path d="M333 1745 c0 -8 4 -12 9 -9 5 3 6 10 3 15 -9 13 -12 11 -12 -6z"/>
<path d="M425 1730 c-4 -6 -3 -9 2 -8 4 1 18 -3 31 -10 30 -17 28 -8 -2 12
-16 10 -27 12 -31 6z"/>
<path d="M4143 1709 c-2 -23 3 -25 10 -4 4 8 3 16 -1 19 -4 3 -9 -4 -9 -15z"/>
<path d="M280 1709 c0 -5 5 -7 10 -4 6 3 10 8 10 11 0 2 -4 4 -10 4 -5 0 -10
-5 -10 -11z"/>
<path d="M4010 1701 c0 -6 4 -13 10 -16 6 -3 7 1 4 9 -7 18 -14 21 -14 7z"/>
<path d="M4585 1701 c3 -5 -3 -12 -12 -14 -14 -4 -13 -5 5 -6 13 -1 22 5 22
14 0 8 -5 15 -11 15 -5 0 -8 -4 -4 -9z"/>
<path d="M308 1693 c6 -2 9 -10 6 -15 -4 -7 -2 -8 5 -4 13 9 5 26 -12 25 -9 0
-8 -2 1 -6z"/>
<path d="M70 1679 c0 -5 5 -7 10 -4 6 3 10 8 10 11 0 2 -4 4 -10 4 -5 0 -10
-5 -10 -11z"/>
<path d="M170 1686 c0 -2 7 -7 16 -10 8 -3 12 -2 9 4 -6 10 -25 14 -25 6z"/>
<path d="M735 1680 c-3 -6 1 -7 9 -4 18 7 21 14 7 14 -6 0 -13 -4 -16 -10z"/>
<path d="M3218 1673 c6 -2 18 -2 25 0 6 3 1 5 -13 5 -14 0 -19 -2 -12 -5z"/>
<path d="M3946 1668 c3 -5 10 -6 15 -3 13 9 11 12 -6 12 -8 0 -12 -4 -9 -9z"/>
<path d="M4320 1665 c0 -8 2 -15 4 -15 2 0 6 7 10 15 3 8 1 15 -4 15 -6 0 -10
-7 -10 -15z"/>
<path d="M4585 1660 c3 -5 8 -10 11 -10 2 0 4 5 4 10 0 6 -5 10 -11 10 -5 0
-7 -4 -4 -10z"/>
<path d="M575 1651 c-3 -5 -2 -12 3 -15 5 -3 9 1 9 9 0 17 -3 19 -12 6z"/>
<path d="M1756 1652 c-3 -5 1 -15 9 -22 16 -14 20 -3 6 19 -5 8 -11 9 -15 3z"/>
<path d="M4380 1651 c0 -6 4 -13 10 -16 6 -3 7 1 4 9 -7 18 -14 21 -14 7z"/>
<path d="M216 1641 c9 -9 45 -11 39 -2 -3 6 -14 9 -25 8 -10 -1 -17 -3 -14 -6z"/>
<path d="M3886 1633 c-6 -14 -5 -15 5 -6 7 7 10 15 7 18 -3 3 -9 -2 -12 -12z"/>
<path d="M4580 1630 c-13 -8 -12 -10 3 -10 9 0 17 5 17 10 0 12 -1 12 -20 0z"/>
<path d="M3582 1625 c4 -4 3 -14 -3 -22 -9 -10 -8 -13 0 -13 7 0 9 -5 5 -12
-4 -7 -3 -10 1 -5 13 11 13 47 1 54 -6 3 -8 3 -4 -2z"/>
<path d="M975 1611 c-3 -5 -2 -12 3 -15 5 -3 9 1 9 9 0 17 -3 19 -12 6z"/>
<path d="M110 1601 c0 -6 4 -13 10 -16 6 -3 7 1 4 9 -7 18 -14 21 -14 7z"/>
<path d="M4463 1595 c0 -8 4 -12 9 -9 5 3 6 10 3 15 -9 13 -12 11 -12 -6z"/>
<path d="M4580 1595 c0 -8 5 -15 10 -15 6 0 10 7 10 15 0 8 -4 15 -10 15 -5 0
-10 -7 -10 -15z"/>
<path d="M153 1565 c0 -8 4 -12 9 -9 5 3 6 10 3 15 -9 13 -12 11 -12 -6z"/>
<path d="M198 1573 c7 -3 16 -2 19 1 4 3 -2 6 -13 5 -11 0 -14 -3 -6 -6z"/>
<path d="M4215 1569 c-11 -16 -1 -19 13 -3 7 8 8 14 3 14 -5 0 -13 -5 -16 -11z"/>
<path d="M4495 1559 c-4 -6 -4 -13 -1 -16 3 -4 6 -1 6 6 0 7 5 9 12 5 7 -4 8
-3 4 4 -9 15 -13 15 -21 1z"/>
<path d="M3795 1550 c3 -5 8 -10 11 -10 2 0 4 5 4 10 0 6 -5 10 -11 10 -5 0
-7 -4 -4 -10z"/>
<path d="M4415 1539 c-4 -6 -5 -12 -2 -15 2 -3 7 2 10 11 7 17 1 20 -8 4z"/>
<path d="M4584 1530 c0 -11 4 -20 8 -20 4 0 8 9 8 20 0 11 -4 20 -8 20 -4 0
-8 -9 -8 -20z"/>
<path d="M830 1526 c0 -2 8 -10 18 -17 15 -13 16 -12 3 4 -13 16 -21 21 -21
13z"/>
<path d="M3944 1510 c0 -13 4 -16 10 -10 7 7 7 13 0 20 -6 6 -10 3 -10 -10z"/>
<path d="M1 1484 c0 -11 3 -14 6 -6 3 7 2 16 -1 19 -3 4 -6 -2 -5 -13z"/>
<path d="M3360 1496 c0 -2 8 -10 18 -17 15 -13 16 -12 3 4 -13 16 -21 21 -21
13z"/>
<path d="M713 1475 c0 -7 7 -11 14 -8 8 3 13 0 11 -7 -2 -7 3 -14 10 -15 7 -2
8 -1 2 2 -5 2 -8 9 -5 13 3 5 -3 13 -13 19 -14 7 -19 6 -19 -4z"/>
<path d="M1870 1479 c0 -5 -6 -7 -12 -3 -10 5 -10 4 -1 -6 6 -7 10 -18 7 -24
-2 -6 8 -11 26 -12 34 -1 40 18 13 44 -16 16 -16 16 -10 0 7 -20 -8 -34 -19
-17 -4 8 -3 9 4 5 8 -5 10 -2 6 8 -7 18 -14 21 -14 5z"/>
<path d="M4065 1480 c3 -4 14 -10 25 -13 11 -3 18 -2 15 3 -3 4 -14 10 -25 13
-11 3 -18 2 -15 -3z"/>
<path d="M4210 1479 c0 -5 5 -7 10 -4 6 3 10 8 10 11 0 2 -4 4 -10 4 -5 0 -10
-5 -10 -11z"/>
<path d="M4015 1450 c0 -23 3 -26 14 -17 10 9 10 12 1 15 -9 3 -10 6 0 12 9 5
8 9 -2 12 -10 4 -14 -3 -13 -22z"/>
<path d="M4370 1469 c0 -5 5 -7 10 -4 6 3 10 8 10 11 0 2 -4 4 -10 4 -5 0 -10
-5 -10 -11z"/>
<path d="M3925 1460 c-3 -5 -1 -10 4 -10 6 0 11 5 11 10 0 6 -2 10 -4 10 -3 0
-8 -4 -11 -10z"/>
<path d="M4177 1459 c7 -7 15 -10 18 -7 3 3 -2 9 -12 12 -14 6 -15 5 -6 -5z"/>
<path d="M4384 1449 c-4 -7 -3 -9 4 -5 5 3 13 0 15 -6 4 -9 6 -10 6 -1 1 17
-16 25 -25 12z"/>
<path d="M4590 1448 c0 -8 -10 -20 -22 -26 l-23 -10 23 1 c21 1 41 32 28 44
-3 4 -6 0 -6 -9z"/>
<path d="M3458 1433 c7 -3 16 -2 19 1 4 3 -2 6 -13 5 -11 0 -14 -3 -6 -6z"/>
<path d="M3661 1424 c0 -11 3 -14 6 -6 3 7 2 16 -1 19 -3 4 -6 -2 -5 -13z"/>
<path d="M3015 1420 c-3 -5 -1 -10 4 -10 6 0 11 5 11 10 0 6 -2 10 -4 10 -3 0
-8 -4 -11 -10z"/>
<path d="M3868 1413 c7 -3 16 -2 19 1 4 3 -2 6 -13 5 -11 0 -14 -3 -6 -6z"/>
<path d="M3635 1389 c-4 -6 -5 -12 -2 -15 2 -3 7 2 10 11 7 17 1 20 -8 4z"/>
<path d="M4271 1384 c0 -11 3 -14 6 -6 3 7 2 16 -1 19 -3 4 -6 -2 -5 -13z"/>
<path d="M4580 1383 c0 -5 5 -15 10 -23 7 -12 9 -10 7 8 -1 19 -17 33 -17 15z"/>
<path d="M3506 1352 c-3 -5 1 -9 9 -9 8 0 12 4 9 9 -3 4 -7 8 -9 8 -2 0 -6 -4
-9 -8z"/>
<path d="M3980 1349 c0 -5 5 -7 10 -4 6 3 10 8 10 11 0 2 -4 4 -10 4 -5 0 -10
-5 -10 -11z"/>
<path d="M4531 1347 c2 -1 13 -9 24 -17 19 -14 19 -14 6 3 -7 9 -18 17 -24 17
-6 0 -8 -1 -6 -3z"/>
<path d="M2361 1314 c0 -11 3 -14 6 -6 3 7 2 16 -1 19 -3 4 -6 -2 -5 -13z"/>
<path d="M4495 1320 c3 -5 8 -10 11 -10 2 0 4 5 4 10 0 6 -5 10 -11 10 -5 0
-7 -4 -4 -10z"/>
<path d="M3898 1313 c7 -3 16 -2 19 1 4 3 -2 6 -13 5 -11 0 -14 -3 -6 -6z"/>
<path d="M4195 1311 c-3 -5 -2 -12 3 -15 5 -3 9 1 9 9 0 17 -3 19 -12 6z"/>
<path d="M4580 1310 c0 -5 5 -10 11 -10 5 0 7 5 4 10 -3 6 -8 10 -11 10 -2 0
-4 -4 -4 -10z"/>
<path d="M3870 1300 c0 -5 5 -10 11 -10 5 0 7 5 4 10 -3 6 -8 10 -11 10 -2 0
-4 -4 -4 -10z"/>
<path d="M4055 1301 c-3 -5 -2 -12 3 -15 5 -3 9 1 9 9 0 17 -3 19 -12 6z"/>
<path d="M4383 1295 c0 -8 4 -12 9 -9 5 3 6 10 3 15 -9 13 -12 11 -12 -6z"/>
<path d="M2395 1291 c-3 -5 -2 -12 3 -15 5 -3 9 1 9 9 0 17 -3 19 -12 6z"/>
<path d="M2700 1290 c-9 -6 -10 -10 -3 -10 6 0 15 5 18 10 8 12 4 12 -15 0z"/>
<path d="M3670 1270 c-9 -6 -10 -10 -3 -10 6 0 15 5 18 10 8 12 4 12 -15 0z"/>
<path d="M3886 1268 c3 -5 10 -6 15 -3 13 9 11 12 -6 12 -8 0 -12 -4 -9 -9z"/>
<path d="M4043 1266 c0 -15 22 -15 34 0 4 5 4 6 -1 2 -5 -4 -14 -3 -21 2 -8 7
-12 5 -12 -4z"/>
<path d="M3358 1263 c7 -3 16 -2 19 1 4 3 -2 6 -13 5 -11 0 -14 -3 -6 -6z"/>
<path d="M3167 1249 c7 -7 15 -10 18 -7 3 3 -2 9 -12 12 -14 6 -15 5 -6 -5z"/>
<path d="M3487 1249 c7 -9 10 -19 6 -22 -3 -4 -2 -7 4 -7 12 0 26 30 18 38 -3
3 -5 0 -5 -8 0 -10 -4 -10 -17 1 -16 12 -17 12 -6 -2z"/>
<path d="M3856 1252 c-3 -5 1 -9 9 -9 8 0 12 4 9 9 -3 4 -7 8 -9 8 -2 0 -6 -4
-9 -8z"/>
<path d="M2115 1239 c-4 -6 -5 -12 -2 -15 2 -3 7 2 10 11 7 17 1 20 -8 4z"/>
<path d="M2781 1234 c0 -11 3 -14 6 -6 3 7 2 16 -1 19 -3 4 -6 -2 -5 -13z"/>
<path d="M3427 1239 c7 -7 15 -10 18 -7 3 3 -2 9 -12 12 -14 6 -15 5 -6 -5z"/>
<path d="M3886 1233 c-6 -14 -5 -15 5 -6 7 7 10 15 7 18 -3 3 -9 -2 -12 -12z"/>
<path d="M4555 1240 c-3 -5 -1 -10 4 -10 6 0 11 5 11 10 0 6 -2 10 -4 10 -3 0
-8 -4 -11 -10z"/>
<path d="M2046 1223 c-11 -11 -7 -20 9 -20 8 0 15 4 15 8 0 11 -16 20 -24 12z"/>
<path d="M3700 1220 c0 -5 5 -10 11 -10 5 0 7 5 4 10 -3 6 -8 10 -11 10 -2 0
-4 -4 -4 -10z"/>
<path d="M4210 1219 c0 -5 5 -7 10 -4 6 3 10 8 10 11 0 2 -4 4 -10 4 -5 0 -10
-5 -10 -11z"/>
<path d="M4412 1221 c-11 -7 -11 -9 0 -14 9 -3 15 1 15 9 0 8 -1 14 -1 14 -1
0 -7 -4 -14 -9z"/>
<path d="M4110 1207 c0 -2 6 -10 14 -16 11 -9 16 -9 22 1 4 7 4 10 -1 6 -4 -4
-14 -3 -22 3 -7 6 -13 9 -13 6z"/>
<path d="M4291 1194 c0 -11 3 -14 6 -6 3 7 2 16 -1 19 -3 4 -6 -2 -5 -13z"/>
<path d="M4591 1194 c0 -11 3 -14 6 -6 3 7 2 16 -1 19 -3 4 -6 -2 -5 -13z"/>
<path d="M2068 1183 c7 -3 16 -2 19 1 4 3 -2 6 -13 5 -11 0 -14 -3 -6 -6z"/>
<path d="M4425 1179 c-4 -6 -4 -13 -1 -16 3 -4 6 -1 6 6 0 7 5 9 12 5 7 -4 8
-3 4 4 -9 15 -13 15 -21 1z"/>
<path d="M3126 1158 c3 -4 11 -5 19 -1 21 7 19 12 -4 10 -11 0 -18 -5 -15 -9z"/>
<path d="M4135 1159 c-4 -6 -5 -12 -2 -15 2 -3 7 2 10 11 7 17 1 20 -8 4z"/>
<path d="M4580 1160 c-13 -8 -12 -10 3 -10 9 0 17 5 17 10 0 12 -1 12 -20 0z"/>
<path d="M4514 1132 c23 -26 23 -26 23 -7 0 8 -3 13 -5 10 -3 -3 -12 1 -21 7
-10 8 -9 4 3 -10z"/>
<path d="M3350 1136 c0 -2 8 -10 18 -17 15 -13 16 -12 3 4 -13 16 -21 21 -21
13z"/>
<path d="M3423 1125 c0 -8 4 -12 9 -9 5 3 6 10 3 15 -9 13 -12 11 -12 -6z"/>
<path d="M2346 1117 c3 -10 9 -15 12 -12 3 3 0 11 -7 18 -10 9 -11 8 -5 -6z"/>
<path d="M3702 1106 c1 -14 5 -23 9 -20 7 4 0 44 -7 44 -2 0 -3 -11 -2 -24z"/>
<path d="M3865 1121 c-3 -5 -2 -12 3 -15 5 -3 9 1 9 9 0 17 -3 19 -12 6z"/>
<path d="M4114 1109 c-3 -6 -2 -15 3 -20 5 -5 9 -1 9 11 0 23 -2 24 -12 9z"/>
<path d="M2900 1086 c0 -8 4 -17 9 -20 5 -4 7 3 4 14 -6 23 -13 26 -13 6z"/>
<path d="M4254 1088 c-4 -7 -4 -10 1 -6 4 4 15 2 24 -5 14 -11 14 -10 2 6 -16
20 -18 21 -27 5z"/>
<path d="M4308 1093 c6 -2 18 -2 25 0 6 3 1 5 -13 5 -14 0 -19 -2 -12 -5z"/>
<path d="M4374 1085 c8 -8 18 -15 22 -15 3 0 1 7 -6 15 -7 8 -17 15 -22 15 -5
0 -3 -7 6 -15z"/>
<path d="M4589 1098 c-5 -17 -4 -48 3 -48 4 0 8 11 8 25 0 20 -7 34 -11 23z"/>
<path d="M4340 1065 c0 -5 5 -17 10 -25 5 -8 10 -10 10 -5 0 6 -5 17 -10 25
-5 8 -10 11 -10 5z"/>
<path d="M3995 1041 c-3 -5 0 -13 6 -17 7 -4 9 -3 5 4 -3 5 0 13 6 15 9 4 10
6 1 6 -6 1 -14 -3 -18 -8z"/>
<path d="M2605 1031 c-3 -5 -2 -12 3 -15 5 -3 9 1 9 9 0 17 -3 19 -12 6z"/>
<path d="M3895 1020 c-3 -6 1 -7 9 -4 18 7 21 14 7 14 -6 0 -13 -4 -16 -10z"/>
<path d="M4314 1019 c-3 -6 -2 -15 3 -20 5 -5 9 -1 10 11 2 22 -2 25 -13 9z"/>
<path d="M3942 1003 c5 -7 14 -10 19 -7 16 10 9 23 -10 21 -15 -1 -17 -4 -9
-14z"/>
<path d="M4100 1016 c0 -2 8 -10 18 -17 15 -13 16 -12 3 4 -13 16 -21 21 -21
13z"/>
<path d="M4202 1000 c0 -14 2 -19 5 -12 2 6 2 18 0 25 -3 6 -5 1 -5 -13z"/>
<path d="M4411 997 c-13 -21 -12 -21 5 -5 10 10 16 20 13 22 -3 3 -11 -5 -18
-17z"/>
<path d="M4592 1000 c0 -14 2 -19 5 -12 2 6 2 18 0 25 -3 6 -5 1 -5 -13z"/>
<path d="M2825 1000 c-4 -6 -11 -7 -17 -4 -7 4 -8 2 -4 -5 6 -9 11 -9 22 0 14
11 18 19 10 19 -3 0 -8 -5 -11 -10z"/>
<path d="M3831 1005 c0 -5 6 -18 14 -29 13 -18 14 -18 12 2 0 11 -4 19 -8 16
-4 -2 -10 2 -12 8 -3 7 -6 9 -6 3z"/>
<path d="M4285 1000 c-3 -5 -1 -10 4 -10 6 0 11 5 11 10 0 6 -2 10 -4 10 -3 0
-8 -4 -11 -10z"/>
<path d="M4382 985 c0 -16 2 -22 5 -12 2 9 2 23 0 30 -3 6 -5 -1 -5 -18z"/>
<path d="M3331 984 c0 -11 3 -14 6 -6 3 7 2 16 -1 19 -3 4 -6 -2 -5 -13z"/>
<path d="M3465 990 c3 -5 8 -10 11 -10 2 0 4 5 4 10 0 6 -5 10 -11 10 -5 0 -7
-4 -4 -10z"/>
<path d="M3626 958 c3 -5 10 -6 15 -3 13 9 11 12 -6 12 -8 0 -12 -4 -9 -9z"/>
<path d="M3687 941 c-4 -17 -3 -21 5 -13 5 5 8 16 6 23 -3 8 -7 3 -11 -10z"/>
<path d="M3715 950 c3 -5 8 -10 11 -10 2 0 4 5 4 10 0 6 -5 10 -11 10 -5 0 -7
-4 -4 -10z"/>
<path d="M3375 940 c-3 -6 1 -7 9 -4 18 7 21 14 7 14 -6 0 -13 -4 -16 -10z"/>
<path d="M4586 935 c4 -8 8 -15 10 -15 2 0 4 7 4 15 0 8 -4 15 -10 15 -5 0 -7
-7 -4 -15z"/>
<path d="M2765 923 c-15 -35 -14 -43 5 -33 9 5 21 6 25 2 5 -4 5 -2 1 5 -4 7
-14 9 -24 6 -15 -6 -15 -5 -3 10 8 10 12 20 9 23 -3 3 -9 -3 -13 -13z"/>
<path d="M3143 915 c0 -8 4 -12 9 -9 5 3 6 10 3 15 -9 13 -12 11 -12 -6z"/>
<path d="M3915 920 c3 -5 8 -10 11 -10 2 0 4 5 4 10 0 6 -5 10 -11 10 -5 0 -7
-4 -4 -10z"/>
<path d="M4002 906 c-1 -14 1 -17 7 -8 5 8 11 13 15 13 3 -1 7 2 9 6 1 3 -5 7
-13 8 -10 2 -17 -6 -18 -19z"/>
<path d="M4385 920 c3 -5 8 -10 11 -10 2 0 4 5 4 10 0 6 -5 10 -11 10 -5 0 -7
-4 -4 -10z"/>
<path d="M4556 912 c-2 -4 -1 -14 5 -22 7 -12 9 -10 9 8 0 23 -5 28 -14 14z"/>
<path d="M3718 903 c7 -3 16 -2 19 1 4 3 -2 6 -13 5 -11 0 -14 -3 -6 -6z"/>
<path d="M3814 884 c-18 -14 -18 -15 4 -4 12 6 22 13 22 15 0 8 -5 6 -26 -11z"/>
<path d="M3977 883 c-4 -6 0 -13 8 -17 8 -3 17 0 21 6 4 6 3 8 -4 4 -5 -3 -12
-1 -14 6 -3 8 -6 9 -11 1z"/>
<path d="M4025 879 c-4 -6 -5 -12 -2 -15 2 -3 7 2 10 11 7 17 1 20 -8 4z"/>
<path d="M4114 879 c-4 -7 -3 -9 4 -5 5 3 13 0 15 -6 4 -9 6 -10 6 -1 1 17
-16 25 -25 12z"/>
<path d="M4586 881 c-4 -7 -5 -15 -2 -18 9 -9 19 4 14 18 -4 11 -6 11 -12 0z"/>
<path d="M4042 850 c-13 -21 -7 -70 9 -70 6 0 5 8 -1 19 -12 23 -13 44 -2 37
4 -2 9 4 9 15 2 24 1 24 -15 -1z"/>
<path d="M3170 851 c0 -6 4 -13 10 -16 6 -3 7 1 4 9 -7 18 -14 21 -14 7z"/>
<path d="M3430 849 c0 -5 5 -7 10 -4 6 3 10 8 10 11 0 2 -4 4 -10 4 -5 0 -10
-5 -10 -11z"/>
<path d="M4385 840 c-3 -6 1 -7 9 -4 18 7 21 14 7 14 -6 0 -13 -4 -16 -10z"/>
<path d="M4446 823 c-4 -11 -1 -11 14 -3 24 13 25 17 5 17 -8 0 -16 -6 -19
-14z"/>
<path d="M4575 830 c-3 -5 -2 -10 4 -10 5 0 12 -10 14 -22 4 -20 4 -20 6 4 1
28 -13 45 -24 28z"/>
<path d="M3551 814 c0 -11 3 -14 6 -6 3 7 2 16 -1 19 -3 4 -6 -2 -5 -13z"/>
<path d="M4396 822 c-3 -5 1 -9 9 -9 8 0 12 4 9 9 -3 4 -7 8 -9 8 -2 0 -6 -4
-9 -8z"/>
<path d="M4469 803 c-13 -16 -12 -17 4 -4 16 13 21 21 13 21 -2 0 -10 -8 -17
-17z"/>
<path d="M3958 803 c7 -3 16 -2 19 1 4 3 -2 6 -13 5 -11 0 -14 -3 -6 -6z"/>
<path d="M3040 794 c0 -20 27 -37 36 -23 4 7 3 9 -4 5 -6 -3 -15 2 -21 11 -6
10 -11 13 -11 7z"/>
<path d="M3116 788 c3 -5 10 -6 15 -3 13 9 11 12 -6 12 -8 0 -12 -4 -9 -9z"/>
<path d="M3828 783 c7 -3 16 -2 19 1 4 3 -2 6 -13 5 -11 0 -14 -3 -6 -6z"/>
<path d="M4588 730 c-3 -16 -1 -30 4 -30 4 0 8 14 8 30 0 17 -2 30 -4 30 -2 0
-6 -13 -8 -30z"/>
<path d="M3160 741 c0 -10 19 -25 25 -20 1 2 -3 10 -11 17 -8 7 -14 8 -14 3z"/>
<path d="M4478 743 c7 -3 16 -2 19 1 4 3 -2 6 -13 5 -11 0 -14 -3 -6 -6z"/>
<path d="M3666 728 c3 -5 10 -6 15 -3 13 9 11 12 -6 12 -8 0 -12 -4 -9 -9z"/>
<path d="M4043 717 c-3 -6 -1 -7 5 -3 19 12 14 -6 -10 -33 -13 -14 -16 -20 -7
-13 9 6 20 8 24 4 5 -4 5 -2 2 4 -4 7 0 17 8 24 8 7 15 16 15 20 0 10 -30 8
-37 -3z"/>
<path d="M4553 715 c0 -8 4 -15 9 -15 4 0 8 4 8 9 0 6 -4 12 -8 15 -5 3 -9 -1
-9 -9z"/>
<path d="M4201 707 c-8 -10 -7 -14 2 -14 8 0 14 6 14 14 0 7 -1 13 -2 13 -2 0
-8 -6 -14 -13z"/>
<path d="M4390 690 c-6 -11 -8 -20 -6 -20 3 0 10 9 16 20 6 11 8 20 6 20 -3 0
-10 -9 -16 -20z"/>
<path d="M3635 691 c-3 -5 -2 -12 3 -15 5 -3 9 1 9 9 0 17 -3 19 -12 6z"/>
<path d="M4425 680 c-3 -5 -1 -10 4 -10 6 0 11 5 11 10 0 6 -2 10 -4 10 -3 0
-8 -4 -11 -10z"/>
<path d="M4568 663 c6 -2 18 -2 25 0 6 3 1 5 -13 5 -14 0 -19 -2 -12 -5z"/>
<path d="M3620 635 c0 -8 4 -15 10 -15 5 0 7 7 4 15 -4 8 -8 15 -10 15 -2 0
-4 -7 -4 -15z"/>
<path d="M4315 640 c-3 -6 1 -7 9 -4 18 7 21 14 7 14 -6 0 -13 -4 -16 -10z"/>
<path d="M4576 635 c-3 -9 0 -15 9 -15 8 0 15 7 15 15 0 8 -4 15 -9 15 -5 0
-11 -7 -15 -15z"/>
<path d="M3986 618 c3 -5 10 -6 15 -3 13 9 11 12 -6 12 -8 0 -12 -4 -9 -9z"/>
<path d="M4025 621 c-3 -5 -2 -12 3 -15 5 -3 9 1 9 9 0 17 -3 19 -12 6z"/>
<path d="M4309 603 c-13 -16 -12 -17 4 -4 16 13 21 21 13 21 -2 0 -10 -8 -17
-17z"/>
<path d="M3919 583 l-24 -28 28 24 c15 14 27 26 27 28 0 8 -8 1 -31 -24z"/>
<path d="M4585 600 c3 -5 8 -10 11 -10 2 0 4 5 4 10 0 6 -5 10 -11 10 -5 0 -7
-4 -4 -10z"/>
<path d="M3751 574 c0 -11 3 -14 6 -6 3 7 2 16 -1 19 -3 4 -6 -2 -5 -13z"/>
<path d="M3860 580 c8 -5 20 -10 25 -10 6 0 3 5 -5 10 -8 5 -19 10 -25 10 -5
0 -3 -5 5 -10z"/>
<path d="M4587 560 c3 -11 7 -20 9 -20 2 0 4 9 4 20 0 11 -4 20 -9 20 -5 0 -7
-9 -4 -20z"/>
<path d="M4065 560 c-3 -5 -1 -10 4 -10 6 0 11 5 11 10 0 6 -2 10 -4 10 -3 0
-8 -4 -11 -10z"/>
<path d="M4395 560 c-3 -6 1 -7 9 -4 18 7 21 14 7 14 -6 0 -13 -4 -16 -10z"/>
<path d="M4230 549 c0 -5 5 -7 10 -4 6 3 10 8 10 11 0 2 -4 4 -10 4 -5 0 -10
-5 -10 -11z"/>
<path d="M4475 539 c-4 -6 -5 -12 -2 -15 2 -3 7 2 10 11 7 17 1 20 -8 4z"/>
<path d="M4295 530 c-3 -6 1 -7 9 -4 18 7 21 14 7 14 -6 0 -13 -4 -16 -10z"/>
<path d="M4390 525 c-7 -9 -11 -17 -9 -20 3 -2 10 5 17 15 14 24 10 26 -8 5z"/>
<path d="M4517 524 c6 -15 23 -19 23 -5 0 5 -7 11 -14 14 -10 4 -13 1 -9 -9z"/>
<path d="M4570 520 c19 -13 30 -13 30 0 0 6 -10 10 -22 10 -19 0 -20 -2 -8
-10z"/>
<path d="M3932 496 c7 -8 15 -12 17 -11 5 6 -10 25 -20 25 -5 0 -4 -6 3 -14z"/>
<path d="M4019 493 c-12 -16 -12 -17 2 -6 9 7 20 9 24 5 5 -4 5 -1 1 6 -9 16
-11 15 -27 -5z"/>
<path d="M4315 500 c3 -5 8 -10 11 -10 2 0 4 5 4 10 0 6 -5 10 -11 10 -5 0 -7
-4 -4 -10z"/>
<path d="M4208 493 c7 -3 16 -2 19 1 4 3 -2 6 -13 5 -11 0 -14 -3 -6 -6z"/>
<path d="M4591 484 c0 -11 3 -14 6 -6 3 7 2 16 -1 19 -3 4 -6 -2 -5 -13z"/>
<path d="M4290 480 c0 -5 5 -10 11 -10 5 0 7 5 4 10 -3 6 -8 10 -11 10 -2 0
-4 -4 -4 -10z"/>
<path d="M4030 476 c0 -2 7 -7 16 -10 8 -3 12 -2 9 4 -6 10 -25 14 -25 6z"/>
<path d="M4251 464 c0 -11 3 -14 6 -6 3 7 2 16 -1 19 -3 4 -6 -2 -5 -13z"/>
<path d="M4428 443 c7 -3 16 -2 19 1 4 3 -2 6 -13 5 -11 0 -14 -3 -6 -6z"/>
<path d="M4580 440 c0 -5 5 -10 10 -10 6 0 10 5 10 10 0 6 -4 10 -10 10 -5 0
-10 -4 -10 -10z"/>
<path d="M3720 410 c-6 -11 -9 -20 -8 -20 2 0 11 9 21 20 9 11 13 20 7 20 -5
0 -14 -9 -20 -20z"/>
<path d="M3935 411 c-3 -5 -2 -12 3 -15 5 -3 9 1 9 9 0 17 -3 19 -12 6z"/>
<path d="M3996 407 c3 -10 9 -15 12 -12 3 3 0 11 -7 18 -10 9 -11 8 -5 -6z"/>
<path d="M3670 390 c0 -5 5 -10 11 -10 5 0 7 5 4 10 -3 6 -8 10 -11 10 -2 0
-4 -4 -4 -10z"/>
<path d="M4366 375 c-11 -8 -15 -15 -9 -15 7 0 15 5 18 10 4 6 11 7 17 4 7 -4
8 -2 4 4 -9 14 -7 15 -30 -3z"/>
<path d="M4095 370 c-16 -7 -17 -9 -3 -9 9 -1 20 4 23 9 7 11 7 11 -20 0z"/>
<path d="M4507 363 c-10 -9 -9 -23 1 -23 5 0 9 7 9 15 0 17 -1 18 -10 8z"/>
<path d="M4584 336 c0 -13 4 -22 9 -19 10 6 9 31 -2 37 -5 3 -8 -5 -7 -18z"/>
<path d="M3695 340 c4 -6 11 -8 16 -5 14 9 11 15 -7 15 -8 0 -12 -5 -9 -10z"/>
<path d="M3721 317 c-8 -10 -7 -14 2 -14 8 0 14 6 14 14 0 7 -1 13 -2 13 -2 0
-8 -6 -14 -13z"/>
<path d="M3785 310 c3 -5 8 -10 11 -10 2 0 4 5 4 10 0 6 -5 10 -11 10 -5 0 -7
-4 -4 -10z"/>
<path d="M4053 313 c4 -3 1 -13 -6 -22 -11 -14 -10 -14 5 -2 16 12 16 31 1 31
-4 0 -3 -3 0 -7z"/>
<path d="M4284 296 c-3 -8 -12 -12 -20 -9 -8 3 -14 0 -14 -6 0 -19 29 -12 40
9 6 11 8 20 5 20 -3 0 -8 -6 -11 -14z"/>
<path d="M4444 294 c-18 -14 -18 -15 4 -4 12 6 22 13 22 15 0 8 -5 6 -26 -11z"/>
<path d="M4160 291 c0 -6 4 -13 10 -16 6 -3 7 1 4 9 -7 18 -14 21 -14 7z"/>
<path d="M4346 287 c3 -10 9 -15 12 -12 3 3 0 11 -7 18 -10 9 -11 8 -5 -6z"/>
<path d="M4584 241 c2 -44 16 -50 16 -8 0 21 -4 37 -9 37 -4 0 -8 -13 -7 -29z"/>
<path d="M4060 256 c0 -2 7 -7 16 -10 8 -3 12 -2 9 4 -6 10 -25 14 -25 6z"/>
<path d="M4515 240 c-3 -5 -1 -10 4 -10 6 0 11 5 11 10 0 6 -2 10 -4 10 -3 0
-8 -4 -11 -10z"/>
<path d="M4585 180 c3 -5 8 -10 11 -10 2 0 4 5 4 10 0 6 -5 10 -11 10 -5 0 -7
-4 -4 -10z"/>
<path d="M4332 165 c15 -16 20 -17 30 -6 11 11 10 13 0 7 -7 -4 -21 -2 -30 5
-15 12 -15 11 0 -6z"/>
<path d="M4370 138 c0 -9 -6 -19 -12 -21 -10 -4 -10 -6 0 -6 14 -1 28 26 18
36 -3 4 -6 -1 -6 -9z"/>
<path d="M4310 116 c0 -3 9 -10 20 -16 11 -6 20 -8 20 -6 0 3 -9 10 -20 16
-11 6 -20 8 -20 6z"/>
<path d="M4490 90 c0 -5 5 -10 11 -10 5 0 7 5 4 10 -3 6 -8 10 -11 10 -2 0 -4
-4 -4 -10z"/>
<path d="M4585 80 c-3 -5 -1 -10 4 -10 6 0 11 5 11 10 0 6 -2 10 -4 10 -3 0
-8 -4 -11 -10z"/>
<path d="M4300 69 c0 -5 5 -7 10 -4 6 3 10 8 10 11 0 2 -4 4 -10 4 -5 0 -10
-5 -10 -11z"/>
</g>
</svg>
