<?xml version="1.0" standalone="no"?>
<!DOCTYPE svg PUBLIC "-//W3C//DTD SVG 20010904//EN"
 "http://www.w3.org/TR/2001/REC-SVG-20010904/DTD/svg10.dtd">
<svg version="1.0" xmlns="http://www.w3.org/2000/svg"
 width="1200.000000pt" height="1200.000000pt" viewBox="0 0 1200.000000 1200.000000"
 preserveAspectRatio="xMidYMid meet">
<metadata>
Created by potrace 1.14, written by Peter Selinger 2001-2017
</metadata>
<g transform="translate(0.000000,1200.000000) scale(0.100000,-0.100000)"
fill="#000000" stroke="none">
<path d="M0 6000 l0 -6000 6000 0 6000 0 0 6000 0 6000 -6000 0 -6000 0 0
-6000z m4595 4168 c-58 -42 -198 -184 -260 -263 -158 -203 -279 -467 -360
-786 -30 -118 -80 -406 -90 -521 -13 -139 -25 -82 -25 115 0 481 74 936 189
1172 17 33 28 61 26 63 -6 7 -122 -58 -195 -109 -200 -141 -355 -358 -440
-619 -56 -173 -65 -241 -65 -515 0 -268 12 -369 71 -613 14 -57 22 -107 19
-110 -24 -24 -158 225 -199 370 -76 266 -74 615 3 934 16 63 25 114 22 114
-15 0 -155 -136 -210 -203 -144 -176 -230 -352 -267 -547 -18 -90 -20 -281 -4
-370 49 -283 205 -570 464 -859 41 -46 73 -88 70 -93 -7 -11 -93 37 -184 100
-106 75 -298 274 -373 387 -113 171 -209 399 -252 600 l-7 30 -34 -55 c-117
-186 -124 -477 -19 -751 79 -205 219 -425 408 -642 74 -85 88 -107 68 -107
-26 0 -256 195 -401 340 -174 173 -245 265 -307 395 -41 88 -43 87 -73 -31
-29 -114 -27 -272 5 -398 67 -268 273 -530 598 -764 151 -110 87 -97 -153 30
-238 126 -402 239 -522 359 -76 76 -77 77 -83 50 -9 -43 14 -206 42 -290 60
-188 199 -366 394 -506 75 -54 308 -180 377 -203 74 -25 11 -50 -150 -59 -182
-10 -354 31 -538 127 -52 27 -95 48 -96 47 -7 -7 59 -142 98 -202 55 -83 180
-209 269 -272 184 -129 445 -222 722 -258 212 -27 378 -28 769 -6 413 24 458
25 458 12 0 -13 -62 -19 -390 -36 -530 -28 -723 -60 -837 -139 -162 -111 -418
-195 -650 -212 -51 -4 -93 -10 -93 -15 0 -19 70 -97 114 -127 88 -59 170 -77
341 -76 154 1 298 24 458 74 36 11 65 16 71 10 9 -9 -49 -47 -288 -195 l-128
-80 5 -155 c5 -163 25 -282 59 -362 23 -55 33 -59 43 -21 19 77 118 233 147
233 4 0 8 -57 8 -127 0 -310 82 -538 250 -697 39 -36 75 -66 80 -66 6 0 10 25
10 54 0 86 27 272 55 376 85 319 240 579 477 805 128 122 374 293 393 273 4
-3 -30 -51 -75 -105 -299 -360 -458 -765 -422 -1077 28 -247 153 -462 368
-633 46 -37 97 -75 112 -85 l29 -18 -23 119 c-54 275 -69 537 -38 671 15 69
39 106 49 79 2 -8 23 -68 45 -134 78 -228 220 -488 361 -661 77 -94 212 -220
299 -278 164 -110 369 -182 550 -193 l95 -6 -80 58 c-270 195 -459 403 -514
567 -20 60 -27 108 -15 108 3 0 37 -19 77 -42 293 -171 713 -314 1119 -380
183 -30 632 -33 808 -5 751 120 1385 533 1922 1254 165 221 335 498 423 688
330 710 473 1544 390 2260 -39 335 -120 657 -246 975 -79 200 -294 597 -407
750 l-29 40 -6 -47 c-4 -27 -9 -80 -13 -118 l-6 -71 60 -84 c224 -312 376
-680 413 -993 20 -171 8 -308 -41 -477 -112 -390 -226 -688 -384 -1007 -137
-277 -389 -763 -459 -887 l-51 -91 -3 -150 c-2 -152 -8 -215 -21 -215 -4 0 -7
105 -7 232 0 296 -25 461 -102 688 -30 87 -110 252 -155 319 -69 102 -194 233
-285 298 -60 43 -164 105 -169 100 -2 -1 14 -49 36 -105 146 -376 208 -792
165 -1114 -30 -229 -58 -278 -69 -123 -30 426 -178 783 -408 980 -56 48 -166
115 -220 134 l-27 9 19 -41 c10 -23 30 -69 45 -102 80 -178 155 -439 180 -630
77 -588 -137 -1027 -630 -1289 -149 -80 -323 -119 -530 -119 -197 1 -350 42
-489 133 -204 134 -334 344 -412 664 -13 56 -24 113 -24 128 0 15 -4 29 -8 32
-16 9 -104 -153 -140 -256 -31 -90 -36 -118 -40 -223 -5 -146 18 -256 78 -382
93 -192 313 -417 558 -569 56 -35 79 -64 51 -64 -24 0 -220 70 -281 101 -232
116 -415 304 -510 525 -58 135 -73 222 -73 425 l0 185 42 85 c58 115 126 204
262 339 130 130 293 263 424 348 264 170 404 302 479 449 l43 86 3 298 c2 188
-1 336 -8 401 -21 180 -24 500 -6 605 38 218 111 284 320 284 92 1 170 -17
250 -58 l49 -25 169 12 c227 17 287 11 356 -37 30 -20 69 -57 88 -81 l33 -44
8 29 c15 55 6 131 -21 187 -36 73 -158 189 -218 206 -24 6 -111 14 -195 17
l-152 5 -53 48 c-29 26 -50 51 -46 55 3 4 42 0 85 -8 73 -14 98 -14 161 -1 23
5 23 5 -10 35 -97 87 -239 163 -370 198 -142 37 -228 44 -417 36 -303 -14
-419 -12 -481 9 -113 38 -197 108 -244 201 -33 68 -45 125 -46 218 0 42 -4 77
-9 77 -19 0 -112 -117 -143 -178 -70 -141 -26 -262 136 -370 83 -56 211 -112
327 -143 44 -12 78 -26 77 -31 -2 -5 -42 -22 -88 -38 -47 -15 -132 -49 -189
-74 -60 -27 -119 -46 -139 -46 -51 0 -116 35 -161 86 -37 42 -40 43 -46 23
-10 -30 3 -107 26 -156 41 -86 130 -125 284 -124 133 1 157 8 243 73 96 73
204 134 294 166 60 22 90 27 173 27 96 0 165 -15 165 -36 0 -5 -17 -9 -37 -9
-164 -1 -454 -155 -604 -322 -151 -166 -262 -304 -292 -363 -27 -51 -32 -71
-32 -135 0 -86 3 -91 107 -220 124 -154 179 -304 177 -489 -1 -58 -4 -116 -7
-129 -13 -43 -27 -27 -34 38 -21 202 -178 479 -401 705 -209 211 -447 510
-512 641 -60 121 -78 207 -78 379 0 120 4 170 22 250 63 277 186 544 394 855
105 156 216 273 402 421 299 238 576 390 865 472 192 55 241 62 480 62 199 0
237 -3 328 -23 270 -60 543 -192 735 -355 65 -56 66 -56 169 -72 275 -41 310
-46 314 -42 8 8 -294 295 -393 374 -137 109 -303 219 -443 292 -121 63 -310
141 -395 162 -27 7 -44 14 -38 16 15 5 111 -25 231 -71 214 -82 460 -229 675
-402 111 -88 407 -369 407 -385 0 -14 -43 -11 -210 15 -85 13 -178 27 -206 31
-44 6 -62 16 -139 80 -163 135 -380 249 -590 310 -593 171 -1218 -7 -1831
-521 -192 -161 -255 -233 -398 -458 -258 -403 -389 -813 -356 -1107 13 -115
32 -184 77 -274 63 -125 343 -477 495 -621 167 -159 322 -392 393 -596 l26
-73 -6 82 c-11 167 -78 315 -203 456 -66 75 -85 124 -80 211 2 52 11 86 31
127 29 59 151 212 295 368 125 136 304 250 492 313 l85 28 -85 -4 c-140 -6
-273 -63 -440 -187 -45 -33 -94 -65 -108 -71 -15 -6 -81 -12 -147 -12 -146 -1
-206 16 -270 78 -47 45 -75 116 -75 192 0 50 10 104 19 104 4 0 24 -22 44 -50
21 -27 55 -61 76 -75 69 -46 90 -44 263 29 85 36 161 66 168 66 25 0 0 13 -72
37 -111 37 -246 106 -313 160 -181 146 -174 325 19 517 l71 71 6 -125 c7 -150
29 -215 95 -289 50 -56 104 -90 184 -117 68 -23 226 -25 413 -6 320 32 635
-51 836 -220 41 -35 76 -68 78 -75 7 -22 -146 -36 -217 -20 l-34 7 27 -28 c28
-29 28 -29 155 -29 163 -1 236 -18 310 -76 133 -102 199 -253 161 -368 -20
-59 -33 -65 -58 -26 -26 43 -97 109 -142 133 -28 15 -56 18 -159 17 -69 -1
-168 -6 -221 -12 l-96 -11 -55 30 c-83 45 -167 63 -268 57 -110 -7 -158 -22
-196 -62 -83 -88 -115 -370 -79 -690 20 -184 28 -472 17 -667 -8 -159 -10
-170 -41 -233 -72 -147 -203 -275 -444 -434 -358 -237 -615 -489 -725 -710
-35 -69 -41 -91 -47 -173 -9 -119 8 -281 41 -396 77 -268 257 -477 524 -612
60 -31 201 -87 190 -77 -3 3 -52 40 -110 82 -196 146 -374 349 -445 509 -119
270 -91 565 80 822 31 46 60 84 65 84 11 0 11 -2 36 -140 93 -524 386 -821
834 -847 261 -14 486 49 712 199 454 303 599 824 412 1487 -38 135 -107 317
-160 424 -43 83 -34 90 63 49 97 -40 176 -94 259 -177 189 -188 303 -462 361
-870 l9 -60 13 104 c19 143 10 429 -18 582 -37 206 -81 361 -158 557 -24 63
-42 117 -39 120 9 9 91 -33 182 -93 333 -221 530 -593 589 -1109 4 -32 10 -54
15 -50 41 43 591 1138 660 1314 120 309 236 689 252 829 40 347 -130 851 -424
1256 l-51 70 12 135 c7 74 16 139 21 144 17 17 204 -272 320 -497 259 -500
383 -960 419 -1558 33 -545 -93 -1248 -324 -1814 -113 -277 -186 -413 -371
-690 -185 -278 -358 -490 -566 -691 -705 -682 -1560 -933 -2516 -738 -296 60
-676 200 -916 335 l-68 39 6 -27 c13 -57 77 -171 140 -249 95 -118 252 -255
429 -373 42 -29 75 -56 72 -62 -18 -28 -286 4 -425 51 -422 141 -768 534 -966
1098 -17 51 -35 89 -38 84 -3 -5 -10 -51 -16 -103 -16 -143 13 -436 66 -671 9
-38 13 -72 10 -76 -17 -16 -193 118 -299 227 -185 190 -267 388 -267 640 0
186 46 362 148 571 57 116 169 293 240 379 57 68 62 80 27 57 -134 -86 -332
-263 -426 -381 -211 -265 -342 -612 -356 -943 -3 -73 -10 -135 -14 -138 -17
-10 -77 31 -151 106 -63 65 -85 96 -127 182 -74 153 -111 323 -111 513 l0 80
-27 -39 c-27 -40 -92 -191 -93 -213 0 -33 -32 -7 -60 50 -39 80 -66 211 -75
369 -12 202 -19 187 152 293 80 49 153 96 162 103 15 12 14 13 -2 8 -10 -3
-63 -15 -118 -26 -291 -59 -504 -41 -645 55 -57 39 -111 108 -120 153 l-6 29
124 6 c223 11 478 94 648 211 45 31 106 53 225 80 l60 14 -58 1 c-88 2 -240
19 -357 42 -444 84 -777 305 -934 619 -42 85 -65 155 -53 166 3 3 31 -12 63
-32 178 -114 440 -186 614 -169 123 12 123 13 14 65 -401 189 -644 468 -703
804 -14 77 -14 197 0 233 10 27 11 27 25 8 107 -153 337 -328 604 -459 70 -35
73 -35 40 -9 -269 217 -431 429 -504 660 -39 127 -52 242 -38 357 13 104 61
251 82 251 7 0 18 -18 25 -40 38 -127 149 -282 329 -460 117 -116 309 -283
280 -245 -6 8 -39 51 -74 95 -204 258 -341 535 -381 768 -19 113 -7 306 25
404 26 80 101 209 121 206 5 -1 21 -51 36 -110 97 -388 316 -717 618 -925 82
-57 83 -53 1 43 -180 210 -323 471 -380 695 -109 426 44 867 413 1191 45 40
87 73 93 73 8 0 4 -31 -12 -92 -49 -188 -66 -305 -71 -503 -5 -211 7 -323 52
-480 26 -89 131 -322 142 -312 3 3 -4 45 -16 94 -86 372 -83 792 10 1075 89
273 260 505 480 651 83 55 197 112 206 103 2 -2 -11 -35 -30 -72 -47 -93 -79
-188 -110 -319 -48 -202 -88 -553 -86 -750 l1 -80 18 105 c89 501 259 888 505
1149 81 85 191 180 210 180 6 0 -3 -9 -20 -21z m403 -39 c-261 -297 -420 -554
-518 -844 -46 -134 -91 -340 -89 -406 1 -24 4 -35 6 -24 3 11 26 83 50 160
138 430 330 763 584 1012 89 87 187 168 194 161 3 -2 -17 -20 -43 -40 -26 -20
-84 -73 -130 -118 -287 -284 -495 -672 -631 -1175 -55 -200 -75 -188 -51 30
49 437 269 884 609 1238 35 37 66 67 69 67 2 0 -20 -27 -50 -61z m1062 57 c0
-2 -42 -27 -92 -54 -253 -136 -512 -342 -674 -535 -71 -84 -214 -290 -214
-308 0 -5 53 45 118 109 366 364 757 614 1176 753 65 21 128 39 140 39 11 -1
-29 -16 -91 -35 -339 -104 -664 -291 -1003 -576 -107 -91 -301 -281 -363 -358
-45 -55 -45 -25 2 65 159 311 468 609 861 833 117 66 140 77 140 67z m-2380
-8527 l0 -80 26 20 c35 27 85 27 110 0 15 -17 20 -40 23 -117 2 -75 7 -99 20
-109 13 -10 6 -12 -43 -13 -47 0 -57 3 -48 12 16 16 16 190 0 206 -18 18 -39
15 -65 -10 -20 -19 -23 -31 -23 -96 0 -56 4 -80 17 -94 15 -17 14 -18 -42 -18
-56 0 -57 1 -42 18 14 16 17 43 17 175 0 150 -1 156 -22 171 -22 15 -21 16 25
16 l47 0 0 -81z m1780 0 l0 -80 26 20 c35 27 85 27 110 0 15 -17 20 -40 23
-117 2 -75 7 -99 20 -109 13 -10 6 -12 -43 -13 -47 0 -57 3 -48 12 8 8 12 46
12 103 0 92 -8 115 -39 115 -8 0 -25 -10 -38 -22 -20 -19 -23 -31 -23 -96 0
-56 4 -80 17 -94 15 -17 14 -18 -42 -18 -56 0 -57 1 -42 18 14 16 17 43 17
175 0 150 -1 156 -22 171 -22 15 -21 16 25 16 l47 0 0 -81z m1080 0 l0 -80 26
20 c35 27 85 27 110 0 15 -17 20 -40 23 -117 2 -75 7 -99 20 -109 13 -10 6
-12 -43 -13 -47 0 -57 3 -48 12 8 8 12 46 12 103 0 92 -8 115 -39 115 -8 0
-25 -10 -38 -22 -20 -19 -23 -31 -23 -96 0 -56 4 -80 17 -94 15 -17 14 -18
-42 -18 -56 0 -57 1 -42 18 14 16 17 43 17 175 0 150 -1 156 -22 171 -22 15
-21 16 25 16 l47 0 0 -81z m1590 -91 c0 -145 3 -174 17 -190 15 -17 14 -18
-42 -18 -56 0 -57 1 -42 18 14 16 17 43 17 175 0 150 -1 156 -22 171 -22 15
-21 16 25 16 l47 0 0 -172z m-4601 136 c26 -22 31 -33 31 -71 0 -38 -5 -50
-34 -79 -30 -30 -40 -34 -85 -34 l-51 0 0 -66 c0 -52 4 -70 18 -80 15 -12 8
-13 -48 -13 -56 0 -63 1 -47 13 15 12 17 32 17 171 0 139 -2 159 -17 171 -15
11 -3 13 84 14 95 0 103 -2 132 -26z m3581 8 c57 -28 80 -73 80 -155 0 -92
-26 -150 -81 -177 -30 -16 -58 -20 -131 -20 -80 1 -90 3 -75 14 15 12 17 32
17 171 0 139 -2 159 -17 171 -30 22 162 19 207 -4z m-2240 -17 c0 -21 -5 -25
-30 -25 -25 0 -30 4 -30 25 0 21 5 25 30 25 25 0 30 -4 30 -25z m410 -40 c0
-35 0 -35 45 -35 33 0 45 -4 45 -15 0 -11 -12 -15 -45 -15 l-45 0 0 -89 c0
-101 12 -123 55 -103 32 15 42 -2 13 -22 -29 -21 -77 -20 -100 1 -15 13 -18
32 -18 115 0 92 -1 98 -21 98 l-20 0 20 26 c12 15 21 37 21 50 0 19 5 24 25
24 22 0 25 -4 25 -35z m-1167 -56 c65 -50 52 -195 -20 -228 -30 -14 -98 -14
-124 -1 -30 17 -49 64 -49 126 0 50 3 59 34 90 30 30 41 34 84 34 35 0 57 -6
75 -21z m274 6 c20 -14 43 -69 43 -102 0 -10 -24 -13 -85 -13 -84 0 -85 0 -85
-25 0 -30 41 -75 67 -75 10 0 31 7 47 15 36 19 54 5 26 -20 -12 -11 -41 -20
-73 -23 -45 -4 -57 -1 -81 19 -57 50 -54 163 5 213 36 30 101 35 136 11z m163
-6 l0 -20 26 20 c26 21 79 28 100 13 24 -16 34 -55 34 -138 0 -71 3 -89 18
-100 15 -12 9 -13 -42 -14 -58 0 -59 0 -42 19 15 17 17 35 15 106 -3 62 -8 88
-19 95 -24 15 -39 12 -65 -15 -22 -21 -25 -33 -25 -92 0 -46 5 -76 16 -91 15
-22 15 -22 -43 -22 -50 1 -56 2 -40 14 14 11 17 30 17 116 0 86 -3 105 -17
116 -16 12 -13 13 25 14 36 0 42 -3 42 -21z m310 -87 c0 -81 4 -113 16 -130
15 -22 15 -22 -43 -22 -50 1 -56 2 -40 14 14 11 17 30 17 116 0 86 -3 105 -17
116 -16 12 -13 13 25 14 l42 0 0 -108z m159 90 c-9 -15 -8 -24 6 -45 9 -15 21
-27 26 -27 16 0 41 50 36 70 -5 18 0 20 40 20 l45 0 -51 -57 c-28 -31 -51 -60
-51 -64 0 -5 22 -37 50 -73 l49 -66 -56 0 c-44 0 -54 3 -45 12 17 17 15 29
-11 62 l-24 29 -23 -33 c-19 -27 -21 -36 -12 -51 11 -18 8 -19 -40 -19 l-53 0
26 23 c14 12 40 41 58 64 l31 41 -49 66 -50 66 54 0 c51 0 54 -1 44 -18z m751
-8 l0 -27 26 27 c18 18 37 26 60 26 31 0 34 -3 34 -30 0 -33 -16 -39 -51 -17
-18 10 -23 9 -45 -16 -33 -38 -35 -146 -4 -177 l20 -20 -62 0 c-55 1 -61 2
-45 14 14 11 17 30 17 116 0 86 -3 105 -17 116 -16 12 -13 13 25 14 39 0 42
-2 42 -26z m230 -73 c0 -77 4 -103 16 -115 19 -20 34 -20 62 0 20 14 22 24 22
101 0 70 -3 88 -17 99 -16 12 -12 13 30 14 l47 0 0 -116 c0 -100 3 -119 18
-130 15 -12 11 -13 -32 -14 -43 0 -48 2 -43 20 l5 20 -28 -20 c-15 -11 -44
-20 -63 -20 -54 0 -67 26 -67 134 0 69 -4 94 -17 108 -15 17 -14 18 25 18 l42
0 0 -99z m408 67 c4 -33 -10 -36 -45 -8 -29 23 -54 25 -71 8 -26 -26 -13 -47
47 -77 32 -17 61 -37 65 -46 23 -62 -18 -105 -100 -105 -71 0 -84 7 -84 41 0
22 5 29 20 29 11 0 20 -7 20 -15 0 -25 45 -40 76 -27 39 19 29 52 -27 82 -66
36 -79 49 -79 80 0 47 41 71 114 68 58 -3 61 -4 64 -30z m1029 17 c20 -14 43
-69 43 -102 0 -10 -24 -13 -85 -13 -84 0 -85 0 -85 -25 0 -30 41 -75 67 -75
10 0 31 7 47 15 36 19 54 5 26 -20 -12 -11 -41 -20 -73 -23 -45 -4 -57 -1 -81
19 -57 50 -54 163 5 213 36 30 101 35 136 11z m161 1 c-10 -7 -18 -19 -18 -26
0 -16 41 -132 50 -143 8 -9 60 115 60 143 0 10 -8 24 -17 29 -14 8 -4 10 41
11 56 0 58 -1 43 -17 -8 -10 -38 -67 -65 -128 -67 -149 -77 -150 -127 -13 -20
57 -45 115 -56 131 l-20 27 63 0 c55 -1 61 -2 46 -14z m369 -1 c20 -14 43 -69
43 -102 0 -10 -24 -13 -85 -13 -84 0 -85 0 -85 -25 0 -30 41 -75 67 -75 10 0
31 7 47 15 36 19 54 5 26 -20 -12 -11 -41 -20 -73 -23 -45 -4 -57 -1 -81 19
-57 50 -54 163 5 213 36 30 101 35 136 11z m436 -6 c65 -50 52 -195 -20 -228
-30 -14 -98 -14 -124 -1 -30 17 -49 64 -49 126 0 50 3 59 34 90 30 30 41 34
84 34 35 0 57 -6 75 -21z m167 0 l0 -20 26 20 c58 46 135 13 150 -64 12 -64
-1 -117 -37 -148 -28 -25 -38 -28 -85 -25 l-54 3 0 -47 c0 -37 5 -50 22 -62
21 -15 19 -16 -41 -16 -61 0 -63 1 -48 18 14 16 17 43 17 172 0 129 -3 156
-17 172 -15 17 -14 18 25 18 36 0 42 -3 42 -21z m418 -11 c4 -33 -10 -36 -45
-8 -29 23 -54 25 -71 8 -26 -26 -13 -47 47 -77 32 -17 61 -37 65 -46 23 -62
-18 -105 -100 -105 -71 0 -84 7 -84 41 0 22 5 29 20 29 11 0 20 -7 20 -15 0
-25 45 -40 76 -27 39 19 29 52 -27 82 -66 36 -79 49 -79 80 0 47 41 71 114 68
58 -3 61 -4 64 -30z"/>
<path d="M3390 1626 c0 -95 4 -99 67 -75 36 13 43 25 43 75 0 54 -17 74 -68
81 l-42 6 0 -87z"/>
<path d="M6980 1545 l0 -165 25 0 c14 0 41 7 61 15 45 18 64 63 64 150 0 87
-19 132 -64 150 -20 8 -47 15 -61 15 l-25 0 0 -165z"/>
<path d="M4000 1582 c-45 -37 -35 -171 16 -194 30 -14 71 11 80 48 12 48 -2
126 -26 146 -28 23 -42 23 -70 0z"/>
<path d="M4292 1583 c-12 -10 -24 -30 -28 -45 l-6 -28 56 0 c52 0 56 2 56 23
0 27 -26 67 -44 67 -8 0 -23 -8 -34 -17z"/>
<path d="M7342 1583 c-12 -10 -24 -30 -28 -45 l-6 -28 56 0 c52 0 56 2 56 23
0 27 -26 67 -44 67 -8 0 -23 -8 -34 -17z"/>
<path d="M7872 1583 c-12 -10 -24 -30 -28 -45 l-6 -28 56 0 c52 0 56 2 56 23
0 27 -26 67 -44 67 -8 0 -23 -8 -34 -17z"/>
<path d="M8290 1582 c-45 -37 -35 -171 16 -194 30 -14 71 11 80 48 12 48 -2
126 -26 146 -28 23 -42 23 -70 0z"/>
<path d="M8596 1569 c-23 -18 -26 -27 -26 -85 0 -69 20 -104 60 -104 40 0 60
35 60 105 0 52 -4 69 -20 85 -25 25 -41 25 -74 -1z"/>
</g>
</svg>
